<svg version="1.1" xmlns="http://www.w3.org/2000/svg" xmlns:xlink="http://www.w3.org/1999/xlink" x="0px" y="0px" viewBox="0 50 750 350">
<g id="OBJECTS">
	<g>
		<g>
			<path style="fill:#AFB3BD;" d="M175.538,269.116c-6.739,35.942-64.264,59.444-25.604,100.558H580.25
				c8.697-21.159,13.905-48.954,15.54-65.498c3.567-36.095-6.919-77.238-31.711-93.382c-33.49-21.807-79.014,8.207-108.956-21.208
				c-17.283-16.979-22.509-47.897-36.032-70.019c-29.851-48.831-93.798-73.438-149.21-64.798
				c-36.874,5.75-74.12,27.528-94.612,59.107c-16.658,25.673-28.649,68.484-14.19,97.403
				C167.744,224.61,180.357,243.411,175.538,269.116z"/>
			<g>
				<path style="fill:#133A50;" d="M346.856,364.051c0.925-28.331,1.852-49.015,1.852-49.015l37.587,2.754l37.379-3.925
					c0,0,3.301,20.631,4.369,50.186H346.856z"/>
				<g>
					<path style="fill:#FEC4AD;" d="M306.638,154.509c-0.153,0.618,9.928-5.641,9.928-5.641l4.259-6.605c0,0,4.166-2.69,7.15-4.14
						c2.984-1.45,8.474-10.377,8.474-10.377l-2.171-2.725c0,0-3.133,3.82-4.161,4.441c-1.029,0.621-3.125,0.103-3.125,0.103
						s0.731-2.773,2.404-6.736c1.673-3.963,6.756-10.364,6.756-10.364l-1.911-2.004c0,0-3.059,2.899-4.161,4.357
						c-1.102,1.457-3.217,4.518-3.217,4.518s2.197-5.388,3.559-7.399c1.362-2.011,2.838-4.735,2.838-4.735l-2.209-1.535
						c0,0-2.586,3.191-3.918,5.58c-1.332,2.389-3.795,6.352-3.795,6.352s1.875-6.085,2.802-7.833
						c0.926-1.748,1.273-2.651,1.273-2.651l-2.62-0.895c0,0-1.943,2.362-3.098,5.536c-1.155,3.174-1.996,4.573-1.996,4.573
						s0.772-5.123,1.641-6.638c0.869-1.515,0.896-2.126,0.896-2.126l-2.125-0.402c0,0-4.082,7.517-6.223,12.177
						c-2.14,4.66-3.818,10.955-5.031,14.362c-1.213,3.407-2.78,15.014-2.78,15.014L306.638,154.509z"/>
					<path style="fill:#E84F5F;" d="M351.93,193.454l-34.081-3.21c0,0-1.4-12.247-0.561-26.475
						c0.912-15.464,2.806-19.768,2.806-19.768l-13.864-1.92c0,0-2.736,12.175-4.7,20.927c-4.354,19.404-8.332,37.58-5.008,41.632
						c4.823,5.879,39.574,22.026,54.284,33.058C359.659,244.338,349.803,213.214,351.93,193.454z"/>
				</g>
				<path style="fill:#E84F5F;" d="M399.859,185.864c-2.198-3.623-2.679-11.422-2.679-11.422h-18.211c0,0-1.34,11.422-3.962,13.654
					c-2.97,2.527-10.91,6.415-16.88,9.031c0.946,8.706,2.053,17.387,3.256,26.054h49.26c0.924-9.334,1.939-18.658,3.038-27.97
					C408.988,193.086,402.061,189.494,399.859,185.864z"/>
				
					<rect x="375.197" y="178.449" transform="matrix(-1 -1.224647e-16 1.224647e-16 -1 776.5892 364.4151)" style="fill:#E84F5F;" width="26.195" height="7.516"/>
				<path style="fill:#E84F5F;" d="M349.404,256.433c0.272-12.179-4.861-62.059-4.861-62.059
					c12.743-2.549,28.093-4.635,28.093-4.635l14.698,15.976l16.615-15.549l26.967,10.89c0,0-6.513,37.718-4.51,49.735
					c2.003,12.016-0.546,69.355-1.638,71.54c-3.322,6.644-19.66,10.922-39.866,9.284c-25.133-2.038-36.422-6.007-36.422-6.007
					C347.766,306.493,348.854,281.055,349.404,256.433z"/>
				<path style="fill:#FEC4AD;" d="M406.753,148.057c0,0-0.229-7.785-5.037-11.301c-4.808-3.516-13.966-3.767-13.966-3.767
					s-9.158,0.251-13.966,3.767c-4.808,3.516-5.037,11.301-5.037,11.301c0.229,1.507-1.506,12.724,2.177,22.1
					c1.974,5.023,5.696,10.04,9.543,12.431c6.869,4.269,11.346,2.1,15.696-0.251c3.967-2.144,7.294-7.256,9.083-12.347
					C407.604,163.277,406.865,149.159,406.753,148.057z"/>
				<path style="fill:#613531;" d="M403.622,130.427c-6.975-6.261-21.674-8.974-32.255,1.411c-9.51,9.335-3.531,23.93-3.531,23.93
					c1.56,0.957-0.121,2.129,0.06,4.136l2.286,0.824c0,0-1.44-6.302,0.31-7.892c1.77-1.607,1.106-3.788,1.304-6.467
					c0.12-1.623,0.457-9.291,3.881-10.815c2.328-1.036,5.741,3.827,11.826,4.006c7.647,0,9.061-4.739,11.376-3.86
					c4.334,1.644,4.586,9.481,4.615,11.267c0.044,2.692-0.551,3.884,1.125,5.593c1.658,1.69,1.009,7.909,1.009,7.909l1.77-0.616
					c0.337-3.426-1.13-3.935,0.499-4.813C407.899,155.04,414.066,139.801,403.622,130.427z"/>
				<path style="fill:#FEC4AD;" d="M406.158,160.343c0.293-2.827,1.113-6.08,2.704-7.419c1.591-1.339,3.7,1.161,3.03,5.262
					c-0.67,4.102-5.734,5.525-5.734,5.525V160.343z"/>
				<path style="fill:#FEC4AD;" d="M369.336,160.343c-0.293-2.827-1.113-6.08-2.704-7.419s-3.7,1.161-3.03,5.262
					c0.67,4.102,5.734,7.224,5.734,7.224V160.343z"/>
				<path style="fill:#FEC4AD;" d="M419.669,330.248l-4.642,5.734c0,0,1.092,8.738,7.099,10.103c0,0,4.369-7.372,5.734-10.922
					L419.669,330.248z"/>
				<path style="fill:#E84F5F;" d="M430.915,201.055c0,0,11.943,6.648,15.351,15.736c3.408,9.089,9.628,60.275,9.628,72.772
					c0,12.497-27.851,52.153-27.851,52.153s-8.191-2.822-9.284-10.285l15.208-45.903c-2.272-14.769-11.557-35.792-11.557-57.377
					C422.409,206.567,430.915,201.055,430.915,201.055z"/>
				<g>
					<path style="fill:#FFFFFF;" d="M399.919,153.803c0,0-0.661,1.251-2.498,2.218c-1.837,0.967-3.013,0.682-4.434-1.463
						C392.988,154.558,395.944,152.099,399.919,153.803z"/>
					<path style="fill:#542F38;" d="M397.017,153.443c0.578-0.069,1.036,0.515,0.8,1.046c-0.118,0.265-0.272,0.521-0.434,0.834
						c-0.26,0.505-0.663,1.14-1.952,1.027c-1.898-0.166-1.76-2.508-1.76-2.508L397.017,153.443z"/>
					<path style="opacity:0.35;fill:#FFFFFF;" d="M396.28,153.645c0.797,0.123,1.129,1.032,0.555,1.334
						c-0.574,0.302-1.297,0.321-1.365-0.366C395.402,153.926,395.482,153.522,396.28,153.645z"/>
					<path style="fill:#782F38;" d="M401.474,154.25c0,0-5.157-1.444-9.479,0.65c0,0-0.232-0.855,0.942-1.46
						c0.648-0.333,2.026-0.66,3.38-0.633C400.957,152.896,401.474,154.25,401.474,154.25z"/>
				</g>
				<g>
					<g>
						<path style="fill:#FFFFFF;" d="M376.393,153.615c0,0,0.599,1.282,2.387,2.337c1.788,1.055,2.976,0.827,4.5-1.245
							C383.28,154.706,380.446,152.106,376.393,153.615z"/>
						<path style="fill:#542F38;" d="M379.327,153.397c-0.574-0.097-1.06,0.464-0.849,1.006c0.105,0.271,0.246,0.533,0.392,0.855
							c0.236,0.516,0.444,1.337,1.899,1.121c0.952-0.141,1.88-2.42,1.88-2.42L379.327,153.397z"/>
						<path style="opacity:0.35;fill:#FFFFFF;" d="M380.054,153.634c-0.802,0.084-1.178,0.976-0.62,1.306
							c0.559,0.33,1.28,0.384,1.382-0.299C380.917,153.958,380.856,153.551,380.054,153.634z"/>
						<path style="fill:#782F38;" d="M374.946,154.061c0,0,4.653-1.274,8.498,0.795c0,0,0.726-1.228-0.314-1.827
							c-0.574-0.331-1.841-0.637-3.126-0.579C375.597,152.647,374.946,154.061,374.946,154.061z"/>
					</g>
				</g>
				<path style="fill:#F49A8A;" d="M384.151,163.613c0.785-0.995,1.279-3.985,1.521-5.866c0.118-0.919,0.898-1.603,1.824-1.603l0,0
					c0.926,0,1.706,0.684,1.824,1.603c0.242,1.881,0.736,4.87,1.521,5.866c1.177,1.493,1.177,2.169,0.327,2.757
					c-0.85,0.588-1.307,0.327-1.896,0.981c-0.525,0.583-1.308,0.785-1.798,0.785c-0.531,0-1.228-0.201-1.753-0.785
					c-0.588-0.654-1.046-0.392-1.896-0.981C382.974,165.781,382.974,165.106,384.151,163.613z"/>
				<path style="fill:#8E373F;" d="M384.011,150.202c0,0,0.763-0.915,0.541-2.094c0,0-4.535-1.831-10.247,0.49
					c0,0-0.63,0.445,0.427,0.367C375.788,148.889,381.594,148.122,384.011,150.202z"/>
				<path style="fill:#8E373F;" d="M391.798,150.202c0,0-0.763-0.915-0.541-2.094c0,0,4.535-1.831,10.247,0.49
					c0,0,0.63,0.445-0.426,0.367C400.021,148.889,394.214,148.122,391.798,150.202z"/>
				<path style="fill:#542F38;" d="M382.586,170.324c0,0,1.265,3.394,5.09,3.394c3.893,0,5.29-3.394,5.29-3.394
					S388.375,172.42,382.586,170.324z"/>
			</g>
			<g>
				<path style="fill:#4FAE86;" d="M239.167,204.274c-7.424,3.994-9.722,9.05-13.4,19.163c-3.677,10.113-7.355,12.411-7.355,12.411
					s7.815,1.839,16.549,20.686c0,0,9.194-6.436,11.492-19.307C248.751,224.357,239.167,204.274,239.167,204.274z"/>
				<path style="fill:#FEC4AD;" d="M209.525,256.074c0,0-0.613,7.355,3.065,11.492c3.677,4.137,7.661,12.258,7.661,12.258
					s5.669-11.952,8.274-15.782c2.605-3.831,10.113-12.411,10.266-20.379c0.153-7.968-12.871-19.919-12.871-19.919
					s-7.202,12.871-7.814,20.226C217.493,251.324,209.525,256.074,209.525,256.074z"/>
				<path style="fill:#133A50;" d="M307.469,366.581c-1.298-28.925-3.727-51.016-3.727-51.016l-57.473,0.513
					c0,0,5.561,24.487,11.512,50.502H307.469z"/>
				<path style="fill:#FEC4AD;" d="M282.606,168.588c0,0-4.435,19.454-0.966,23.977c2.035,2.653,10.655,12.101,10.655,12.101
					s-28.56,15.078-36.956,15.078c-8.396,0-5.453-16.842-5.453-16.842s9.155-7.236,10.519-10.893
					c1.364-3.656,2.126-14.244,2.126-14.244L282.606,168.588z"/>
				<path style="fill:#133A50;" d="M227.636,366.581h38.279c0.229-4.603,0.37-7.446,0.37-7.446l-10.727-37.267l-22.847-6.094
					c0,0-9.685,18.377-7.066,22.738C227.003,340.776,227.345,351.952,227.636,366.581z"/>
				<path style="fill:#4FAE86;" d="M286.478,196.178l22.95,8.719c0,0,0.606,27.713,0.284,37.158c-0.323,9.445-3.71,84.06-3.71,84.06
					s-9.014,13.963-52.387,8.404c-16.725-2.144-24.948-10.296-24.948-10.296s4.689-82.168,5.98-91.613
					c1.291-9.445,4.519-28.336,4.519-28.336l14.147-4.353l5.774,8.61L286.478,196.178z"/>
				<polygon style="fill:#4FAE86;" points="281.64,192.565 259.088,208.531 266.258,216.774 286.478,196.178 				"/>
				<polygon style="fill:#4FAE86;" points="259.088,208.531 251.972,214.244 253.314,199.921 255.977,196.178 				"/>
				<g>
					<path style="fill:#FEC4AD;" d="M294.965,279.349c5.999-9.645,20.262-39.355,20.262-39.355l-18.962-10.229l-10.126,32.438
						c-1.75-0.614-4.505-1.937-6.847-3.134c3.359,4.617,6.847,9.139,10.356,13.646C291.427,274.921,293.2,277.132,294.965,279.349z"
						/>
					<path style="fill:#4FAE86;" d="M320.966,221.823c0.144,10.768-11.231,42.526-11.231,42.526s-9.194-9.807-20.217-15.625
						c0,0,3.984-16.081,6.32-24.56c2.585-9.386,4.463-20.504,13.031-19.307C317.143,206.013,320.851,213.198,320.966,221.823z"/>
				</g>
				<g>
					<g>
						<path style="fill:#F5C5B3;" d="M284.968,168.322c0,0-0.319-6.913,5.474-6.736c3.697,0.113,3.984,3.502,1.103,7.874
							c-1.213,1.841-1.335,6.004-2.841,7.343c-1.831,1.627-3.363-0.884-3.92-2.028C283.863,172.881,284.968,168.322,284.968,168.322
							z"/>
					</g>
					<g>
						<path style="fill:#F5C5B3;" d="M253.76,168.322c0,0,0.319-6.913-5.474-6.736c-3.697,0.113-3.984,3.502-1.103,7.874
							c1.213,1.841,1.335,6.004,2.841,7.343c1.831,1.627,3.363-0.884,3.92-2.028C254.865,172.881,253.76,168.322,253.76,168.322z"/>
					</g>
					<path style="fill:#F5C5B3;" d="M290.839,151.4c-0.142,2.242-0.587,3.7-1.169,7.034c-0.138,0.802-0.289,1.719-0.44,2.783
						c-1.197,8.299-2.714,19.583-3.37,21.266c-1.082,2.792-7.01,7.313-9.826,8.969c-2.815,1.655-9.895,1.316-12.71-0.339
						c-2.815-1.655-9.184-5.837-10.266-8.629c-0.665-1.715-2.238-13.325-3.443-21.761c-0.138-0.963-0.271-1.793-0.399-2.526
						c-0.569-3.288-1.004-4.585-1.142-6.795c-0.431-7.011,7.46-17.208,21.385-17.208C285.928,134.192,291.274,144.39,290.839,151.4z
						"/>
					<path style="fill:#E8D4E5;" d="M255.05,142.565c0,0,11.837-5.258,25.505,0.932l4.912-3.128c0,0-7.162-3.749-17.456-3.673
						C257.717,136.772,255.05,142.565,255.05,142.565z"/>
					<g>
						<path style="fill:#7B2B1A;" d="M289.67,158.434c-0.138,0.802-0.289,1.719-0.44,2.783c-1.197,8.299-2.714,19.583-3.37,21.266
							c-1.082,2.792-7.011,7.313-9.826,8.969c-2.815,1.655-9.895,1.316-12.71-0.339c-2.815-1.655-9.184-5.837-10.266-8.629
							c-0.665-1.715-2.238-13.325-3.443-21.761c-0.138-0.963-0.271-1.793-0.399-2.526l1.137-1.697c0,0,2.05,12.031,5.19,15.768
							c3.136,3.732,3.737,3.907,3.737,3.907s3.421-0.844,6.424-1.587c0.174-0.046,0.344-0.087,0.513-0.128
							c2.476-0.605,5.025-0.596,7.492,0.06c0.138,0.032,0.271,0.069,0.408,0.11l0.467,0.138l4.865,1.408
							c0,0,1.132-0.174,4.273-3.907c3.141-3.737,4.654-15.768,4.654-15.768L289.67,158.434z"/>
					</g>
					<g>
						<g>
							<path style="fill:#FFFFFF;" d="M280.922,160.081c-0.192,0.53-1.761,1.739-2.71,1.915c-1.246,0.231-2.949,0.405-4.436-1.617
								C273.775,160.379,276.968,158.609,280.922,160.081z"/>
							<path style="fill:#542F38;" d="M276.965,158.911c0.568,0.003,1.76,0.052,1.756,0.889c-0.002,0.427-0.183,1.019-0.326,1.332
								c-0.23,0.504-0.802,1.311-2.17,0.878c-1.675-0.53-1.834-2.361-1.834-2.361S274.698,158.897,276.965,158.911z"/>
							<path style="opacity:0.35;fill:#FFFFFF;" d="M276.923,159.333c0.783,0.081,1.15,0.952,0.605,1.274
								c-0.545,0.322-1.249,0.374-1.348-0.292C276.081,159.649,276.14,159.252,276.923,159.333z"/>
							<path style="fill:#864838;" d="M281.906,160.742c0,0-4.54-2.236-8.29-0.218c0,0-0.708-0.758,0.307-1.342
								c0.56-0.322,1.796-0.621,3.05-0.565C281.271,158.81,281.906,160.742,281.906,160.742z"/>
						</g>
					</g>
					<path style="fill:#7B2B1A;" d="M265.998,153.322c0,0-3.587,0.162-6.732,0.162c-1.523,0-2.741,1.338-3.176,2.142
						c-0.101,0.187-0.31,1.526-0.116,1.868c0,0,1.813-1.68,2.541-1.68c0.884,0,4.284,0.072,6.418,0
						C266.229,155.77,266.213,153.828,265.998,153.322z"/>
					<path style="fill:#7B2B1A;" d="M272.712,153.322c0,0,3.587,0.162,6.732,0.162c1.523,0,2.741,1.338,3.176,2.142
						c0.101,0.187,0.31,1.526,0.116,1.868c0,0-1.813-1.68-2.541-1.68c-0.885,0-4.284,0.072-6.418,0
						C272.481,155.77,272.497,153.828,272.712,153.322z"/>
					<g>
						<g>
							<path style="fill:#FFFFFF;" d="M257.867,160.081c0.192,0.53,1.761,1.739,2.71,1.915c1.246,0.231,2.95,0.405,4.436-1.617
								C265.013,160.379,261.821,158.609,257.867,160.081z"/>
							<path style="fill:#542F38;" d="M261.823,158.911c-0.567,0.003-1.76,0.052-1.756,0.889c0.002,0.427,0.183,1.019,0.326,1.332
								c0.23,0.504,0.801,1.311,2.17,0.878c1.675-0.53,1.834-2.361,1.834-2.361S264.091,158.897,261.823,158.911z"/>
							<path style="opacity:0.35;fill:#FFFFFF;" d="M261.866,159.333c-0.783,0.081-1.15,0.952-0.605,1.274
								c0.545,0.322,1.249,0.374,1.348-0.292C262.708,159.649,262.649,159.252,261.866,159.333z"/>
							<path style="fill:#864838;" d="M256.883,160.742c0,0,4.54-2.236,8.29-0.218c0,0,0.708-0.758-0.307-1.342
								c-0.56-0.322-1.796-0.621-3.05-0.565C257.518,158.81,256.883,160.742,256.883,160.742z"/>
						</g>
					</g>
					<g>
						<path style="fill:#542F38;" d="M273.815,178.768c-0.269,0.719-1.197,2.543-3.895,2.702c-0.638,0.037-1.904-0.28-2.381-0.527
							c-1.577-0.826-2.287-2.24-2.029-2.175C267.45,179.256,272.1,179.171,273.815,178.768z"/>
					</g>
					<path style="fill:#7B2B1A;" d="M291.849,146.912c-0.046,0.229-1.178,8.428-1.641,9.725c-0.711,1.985-1.256,3.421-1.256,3.421
						l-0.844-1.834c-1.564-3.4-2.412-7.084-2.491-10.826l-0.15-7.029l2.338-2.068C292.414,138.988,292.908,141.657,291.849,146.912z
						"/>
					<path style="fill:#7B2B1A;" d="M255.331,140.731l-0.004,0.032l-1.121,7.232c-0.52,3.353-1.66,6.581-3.363,9.516l-0.097,0.167
						l-1.275,2.201c0,0-0.376-1.279-0.899-3.095c-0.385-1.339-1.338-8.194-1.568-9.161c-0.073-0.303-0.138-0.596-0.193-0.88
						c-0.981-5.145-0.023-7.299,4.539-7.983L255.331,140.731z"/>
					<path style="fill:#7B2B1A;" d="M287.806,138.301l-2.338,2.068l-4.452,1.6c-0.537-0.55-8.652-3.361-15.69-2.82
						c-8.927,0.688-10.146,3.256-10.275,3.416c-0.005,0.005-0.005,0.009-0.005,0.009l-0.921-0.202l-4.383-0.958l-0.897-0.196
						c0,0,1.022-3.866,1.749-4.962c3.513-5.292,13.063-8.715,21.742-7.835c0.294,0.028,0.582,0.06,0.871,0.101
						c8.107,1.068,11.825,4.888,11.825,4.888L287.806,138.301z"/>
					<path style="fill:#F49A8A;" d="M272.847,170.509c-0.787-0.862-1.378-5.439-1.634-6.798c-0.12-0.636-0.781-1.099-1.55-1.099l0,0
						c-0.769,0-1.43,0.463-1.55,1.099c-0.256,1.358-0.847,5.935-1.634,6.798c-1.23,1.348-1.281,1.981-0.479,2.544
						c0.819,0.575,1.291,0.318,1.861,0.965c0.52,0.59,1.321,0.796,1.826,0.796c0.546,0,1.259-0.206,1.779-0.796
						c0.57-0.647,1.042-0.39,1.861-0.965C274.128,172.49,274.077,171.857,272.847,170.509z"/>
				</g>
				<path style="fill:#FEC4AD;" d="M247.331,232.054c4.154,2.921,21.182,14.509,27.346,17.131
					c6.164,2.621,15.767,9.545,19.284,12.703c3.517,3.158,7.497,4.323,7.193,5.608c-0.304,1.285-6.857,14.788-9.653,14.32
					c-2.797-0.468-19.095-13.205-25.751-18.657c-6.657-5.452-15.508-18.012-19.88-20.016c-4.372-2.003-4.068-3.288-6.541-3.486
					c-2.473-0.197-2.106-0.111-4.265-0.815c-2.159-0.705-3.213-4.443-4.648-5.751c-1.435-1.309-3.604-2.791-3.203-3.665
					c0.401-0.874,0.661-1.976,5.81,0.018c0,0-4.792-2.684-7.038-3.022c-2.246-0.338-7.095-0.322-9.341-0.66
					c-2.246-0.338-3.777-2.057-2.135-2.443c1.642-0.387,8.631-1.253,11.244-0.828c2.613,0.424,10.669,0.78,13.746,1.702
					C242.577,225.115,244.839,230.301,247.331,232.054z"/>
				<g>
					<path id="XMLID_55_" style="fill:#97A3CC;" d="M247.647,258.457l-18.752,7.057c-1.931,0.714-4.961-0.26-6.775-2.171
						l-39.74-42.241c-1.799-1.894-1.721-4.011,0.183-4.733l18.528-7.13c3.699-0.557,5.947,0.08,7.796,2.023l39.645,41.91
						C250.397,255.133,250.637,256.558,247.647,258.457z"/>
					
						<linearGradient id="XMLID_00000039820918345092478750000001102968831689515665_" gradientUnits="userSpaceOnUse" x1="637.5314" y1="249.1503" x2="704.6354" y2="248.4439" gradientTransform="matrix(0.6544 -0.2963 0.7023 0.731 -408.8387 258.9827)">
						<stop  offset="0" style="stop-color:#EEF4FB"/>
						<stop  offset="0.3115" style="stop-color:#E3EDF8"/>
						<stop  offset="1" style="stop-color:#CFE1F3"/>
					</linearGradient>
					<path id="XMLID_37_" style="fill:url(#XMLID_00000039820918345092478750000001102968831689515665_);" d="M246.63,258.951
						l-18.838,7.102c-1.942,0.719-4.985-0.255-6.806-2.172l-39.905-42.43c-1.804-1.9-1.72-4.025,0.197-4.749l18.631-7.154
						c2.009-0.76,5.155,0.207,7.018,2.165l39.993,42.297C248.798,255.983,248.665,258.197,246.63,258.951z"/>
				</g>
				<path style="fill:#FEC4AD;" d="M208.146,255.462c-2.758-0.766-6.436-1.073-7.355-2.911c-0.919-1.839-2.299-2.298-3.831-3.677
					c-1.532-1.379-0.613-2.758-2.452-4.443c-1.839-1.686,0-4.597-0.153-6.129c-0.153-1.532-0.306-4.597,0.306-7.355
					c0.613-2.758,3.065-3.371,6.282-4.444c3.218-1.073,5.516-1.073,5.516,0.613c0,1.685-3.371,3.984-3.371,3.984
					s5.516-1.839,7.048-2.452c1.533-0.613,3.984,0.766,2.911,2.758c-1.073,1.992-5.516,4.597-6.895,5.363
					c-1.379,0.766-2.145,2.298-2.145,2.298s4.137,0,7.048-1.226c2.911-1.226,5.516-3.984,7.508-2.758
					c1.992,1.226,0.919,2.758-1.073,4.444c0,0-4.29,2.911-5.669,3.524c0,0,4.29,0.153,6.436-0.766
					c2.145-0.919,3.218,0.153,2.605,1.839c-0.613,1.686-6.589,3.064-6.742,3.677c-0.153,0.613,1.072,2.145,1.839,3.984
					C216.727,253.623,208.146,255.462,208.146,255.462z"/>
				<path style="fill:#FEC4AD;" d="M203.702,251.018c1.226,3.677,1.226,7.508,1.226,12.565c0,5.056-0.46,13.79,2.452,15.936
					c2.911,2.145,7.049,6.282,10.573,2.911c3.524-3.371,5.363-8.734,5.823-13.79c0.46-5.056-5.21-12.411-7.815-16.855
					L203.702,251.018z"/>
			</g>
			<g>
				<rect x="137.679" y="361.958" style="fill:#DCA86E;" width="474.643" height="15.195"/>
				<rect x="121.4" y="361.958" style="fill:#F3BA7A;" width="507.199" height="10.087"/>
			</g>
			<g>
				<path style="fill:#471A16;" d="M497.211,167.255c-0.93,11.396,0.233,11.396,1.163,19.071c0.93,7.675,20.854,7.83,20.854,7.83
					s6.391,0.819,10.311,0.31c3.919-0.509,9.536-1.861,10.466-16.048c0.93-14.187-3.721-24.886-3.721-24.886l-34.654-3.256
					L497.211,167.255z"/>
				<path style="fill:#FEC4AD;" d="M510.876,171.661c0,0,0.418,12.388-2.519,18.031c-2.027,3.894-9.371,5.158-9.371,5.158
					s-0.934,11.064,5.696,22.196c6.63,11.132,29.123,16.447,29.123,16.447s4.973-8.666,7.916-18.534
					c2.943-9.868,1.581-16.642,1.581-16.642s-10.55-3.715-13.433-5.002c-7.001-3.125-5.482-14.459-5.482-14.459L510.876,171.661z"/>
				<polygon id="XMLID_38_" style="fill:#FEC4AD;" points="549.7,265.64 487.861,249.601 490.579,200.859 503.978,193.902 
					534.706,196.597 540.942,201.491 				"/>
				<path id="XMLID_241_" style="fill:#FEC4AD;" d="M534.48,149.549c0.26,7.418,0.24,7.193-0.289,15.379
					c-0.455,7.037-2.46,11.365-3.489,14.42c-1.038,3.084-5.803,8.552-10.197,11.009c-0.88,0.492-3.034,0.709-4.7,0.179
					c-5.63-1.788-11.442-9.28-13.196-13.821c-1.286-3.329-1.966-9.33-2.066-14.871c-0.098-5.445-0.121-12.506,0.047-16.566
					C501.186,130.938,534.27,143.548,534.48,149.549z"/>
				<path style="fill:#42B2FC;" d="M497.937,203.218l1.049-8.368c0,0,10.578,9.92,19.631,9.92c12.931,0,14.224-9.914,14.224-9.914
					l4.747,0.729l-1.052,14.613l-9.684,56.684l-24.165-40.687L497.937,203.218z"/>
				<path style="fill:#348EC9;" d="M566.85,269.269c-0.564-4.137-4.028-30.209-5.035-35.512c-2.393-12.607-4.964-21.608-7.931-26.4
					c-2.967-4.793-10.252-9.809-10.252-9.809l-4.401,26.662c0,0,3.391,31.73,8.231,39.011c1.657,2.493,6.709,4.357,8.333,6.028
					C556.187,267.345,564.894,276.548,566.85,269.269z"/>
				<path style="fill:#348EC9;" d="M559.802,362.852c0.154-11.338-0.757-22.683-3.562-32.446c-1.103-3.839-2.086-7.461-2.965-10.91
					h-69.982c-2.161,10.313-4.183,20.759-4.212,31.888c-0.011,4.032,0.028,7.846,0.105,11.468H559.802z"/>
				<path style="fill:#42B2FC;" d="M548.818,259.183c-2.13,8.932,5.848,54.498,7.587,66.574c0,0-5.03,9.814-34.341,11.538
					c-40.121,2.36-42.986-7.564-42.986-7.564c1.629-11.09,10.188-55.985,7.059-68.262c-3.935-15.443-5.884-34.285-5.884-34.285
					s0.841-22.289,2.116-26.219l16.616-6.115l29.496,54.423l9.107-53.687l6.044,1.962c1.275,3.93,5.268,21.395,7.848,29.845
					c1.253,4.104,2.55,9.762,1.5,16.994C552.242,249.477,550.346,252.779,548.818,259.183z"/>
				<path style="fill:#348EC9;" d="M501.146,262.735c-0.843-13.867-0.392-28.297-1.239-37.685
					c-1.97-21.831-17.537-24.085-17.537-24.085s-4.503,0.526-5.577,14.057c-0.488,6.147-2.557,30.332-0.991,48.114
					c1.179,13.391,5.781,15.321,4.872,15.419c-1.217,0.132,20.22,6.047,24.965,2.97
					C503.126,272.827,501.254,274.936,501.146,262.735z"/>
				<path id="XMLID_286_" style="fill:#732A24;" d="M521.65,133.082c-2.347,1.364,1.662,6.653,2.308,9.752
					c0.646,3.099,7.518,8.661,9.303,18.141c2.237,11.881-3.774,29.231-5.969,35.042c0,0,5.501,0.188,9.923-4.574
					c3.024-3.256,5.208-8.591,5.208-15.176c0-6.585,0.374-22.269-3.58-32.27C535.55,135.669,527.202,129.854,521.65,133.082z"/>
				<path id="XMLID_285_" style="fill:#732A24;" d="M511.646,150.388c-8.47,3.694-9.255,11.147-9.783,19.192
					c-0.488,7.447-0.208,20.143,3.023,23.956c0,0-6.994,0.137-9.536-6.745c-2.542-6.882-1.662-33.504,0.698-40.236
					c2.36-6.731,7.477-11.027,13.489-13.722c6.745-3.024,17.911-2.78,18.606,1.395C528.839,138.404,520.978,146.319,511.646,150.388
					z"/>
				<path style="fill:#FEC4AD;" d="M512.869,263.642c-1.477-2.955-4.801-6.648-5.417-10.219c-0.616-3.57-2.708-5.417-5.909-6.771
					c-3.201-1.354-6.156-1.97-7.879-2.462c-1.724-0.493-2.216,1.354,0.246,2.462c2.462,1.108,4.309,1.847,5.294,2.462
					c0.985,0.615,1.601,2.339,1.601,2.339s-3.817-1.724-7.51-1.6c-3.694,0.123-6.525-0.123-6.648,0.985
					c-0.123,1.108,1.6,2.216,5.048,2.339c3.447,0.123,5.54,0.616,6.279,1.477c0.739,0.862,1.782,1.278,1.782,1.278
					s-5.353-0.417-8.061-0.54c-2.708-0.123-4.801,1.97-3.201,2.586c1.601,0.616,4.802,0.369,7.264,0.492
					c2.462,0.123,3.998,2.832,3.998,2.832s-2.89,0.246-5.968,0.369c-3.078,0.123-4.186,1.231-2.216,1.97
					c1.97,0.739,6.009,0.29,8.184,0.616c2.174,0.326,6.713,1.847,6.713,1.847L512.869,263.642z"/>
				<g>
					<path style="fill:#808194;" d="M512.243,276.732c-5.749,0.476-5.432-10.405-5.432-10.405s9.809-5.154,10.282-0.53
						C517.567,270.422,512.243,276.732,512.243,276.732z"/>
					<g>
						<path style="fill:#FEC4AD;" d="M516.846,259.497c-2.974,0.012-7.948-2.966-12.631-0.073c-4.683,2.893-7.648,6.017-7.648,6.017
							s9.399-0.147,14.543,2.286c5.144,2.434,10.208,6.532,10.208,6.532L516.846,259.497z"/>
						<path style="fill:#348EC9;" d="M516.846,259.497c1.379,2.281-5.867,15.449-6.488,17.683c0,0,9.595,2.759,23.729,3.367
							c16.376,0.704,28.3-0.024,32.067-2.594c3.767-2.57-0.819-20.801-10.536-17.089c-5.916,2.259-15.058,3.231-23.565,1.43
							C523.544,260.493,516.846,259.497,516.846,259.497z"/>
					</g>
				</g>
				<g>
					<g>
						<path style="fill:#FEC4AD;" d="M529.893,259.183c2.956-0.33,7.555-3.859,12.539-1.523c4.984,2.336,8.288,5.099,8.288,5.099
							s-9.354,0.933-14.184,3.941c-4.83,3.008-9.391,7.661-9.391,7.661L529.893,259.183z"/>
						<path style="fill:#348EC9;" d="M529.893,259.183c3.813,1.313,8.476,3.957,8.476,16.821c0,0-9.215,3.842-23.186,6.069
							c-16.186,2.58-28.09,0.013-32.128-2.107c-4.037-2.121-1.936-21.117,6.631-18.819c6.116,1.641,17.178,5.327,25.422,2.561
							C523.353,260.942,529.893,259.183,529.893,259.183z"/>
					</g>
				</g>
				<path style="fill:#732A24;" d="M506.514,140.741c0.465,3.023-0.465,13.024,1.861,12.559c1.163-0.233,14.42-1.163,20.699,0.232
					c0,0,6.745-16.745-1.163-18.141C520.004,133.996,506.514,140.741,506.514,140.741z"/>
				<g>
					<g id="XMLID_62_">
						<g id="XMLID_64_">
							<g id="XMLID_66_">
								<path id="XMLID_69_" style="fill:#FFFFFF;" d="M526.527,166.488c-5.166-0.096-5.483-1.116-5.483-1.116l0.266-0.407
									c0.71-1.088,1.921-1.744,3.22-1.744h2.22l1.846,1.278C528.596,164.499,530.053,166.554,526.527,166.488z"/>
								<path id="XMLID_68_" style="fill:#006F9A;" d="M526.524,164.456c0,0.904-0.732,1.636-1.636,1.636
									c-0.903,0-1.636-0.732-1.636-1.636c0-0.903,0.732-1.635,1.636-1.635C525.791,162.821,526.524,163.553,526.524,164.456z"/>
								<path id="XMLID_67_" style="opacity:0.7;fill:#FFFFFF;" d="M525.678,163.849c0,0.362-0.189,0.655-0.421,0.655
									c-0.233,0-0.422-0.293-0.422-0.655c0-0.361,0.189-0.654,0.422-0.654C525.489,163.195,525.678,163.488,525.678,163.849z"/>
							</g>
							<path id="XMLID_65_" style="fill:#562D22;" d="M520.916,165.372c0,0,2.443-3.479,6.159-2.5
								c2.069,0.545,1.521,1.25,3.159,0.838c0,0-0.679,0.918-1.369,1.005c-1.095,0.138-1.141-0.68-2.93-0.964
								C523.17,163.311,520.916,165.372,520.916,165.372z"/>
						</g>
						<path id="XMLID_63_" style="fill:#562D22;" d="M520.248,160.587c0,0,1.051-1.918,1.746-2.103
							c1.946-0.518,3.618-0.18,5.197-0.175c1.579,0.005,3.152,1.589,3.838,2.806c0,0-1.741-1.37-3.659-1.297
							C525.685,159.883,524.476,159.889,520.248,160.587z"/>
					</g>
					<g id="XMLID_52_">
						<g id="XMLID_54_">
							<g id="XMLID_57_">
								<path id="XMLID_61_" style="fill:#FFFFFF;" d="M509.05,166.488c5.166-0.096,5.483-1.116,5.483-1.116l-0.266-0.407
									c-0.71-1.088-1.921-1.744-3.219-1.744h-2.22l-1.847,1.278C506.981,164.499,505.524,166.554,509.05,166.488z"/>
								<path id="XMLID_59_" style="fill:#006F9A;" d="M509.053,164.456c0,0.904,0.733,1.636,1.636,1.636
									c0.903,0,1.636-0.732,1.636-1.636c0-0.903-0.732-1.635-1.636-1.635C509.786,162.821,509.053,163.553,509.053,164.456z"/>
								<path id="XMLID_58_" style="opacity:0.7;fill:#FFFFFF;" d="M509.899,163.849c0,0.362,0.189,0.655,0.422,0.655
									c0.233,0,0.421-0.293,0.421-0.655c0-0.361-0.189-0.654-0.421-0.654C510.088,163.195,509.899,163.488,509.899,163.849z"/>
							</g>
							<path id="XMLID_56_" style="fill:#562D22;" d="M514.662,165.372c0,0-2.443-3.479-6.16-2.5
								c-2.069,0.545-1.521,1.25-3.159,0.838c0,0,0.679,0.918,1.369,1.005c1.096,0.138,1.142-0.68,2.93-0.964
								C512.407,163.311,514.662,165.372,514.662,165.372z"/>
						</g>
						<path id="XMLID_53_" style="fill:#562D22;" d="M515.342,160.493c0,0-1.083-1.9-1.782-2.073
							c-1.954-0.486-3.62-0.12-5.198-0.088c-1.579,0.031-3.125,1.642-3.79,2.871c0,0,1.717-1.4,3.637-1.358
							C509.895,159.881,511.102,159.867,515.342,160.493z"/>
					</g>
					<path style="fill:#FDAF99;" d="M520.557,173.272c-0.652-0.826-1.062-3.307-1.263-4.868c-0.098-0.762-0.745-1.33-1.513-1.33l0,0
						c-0.768,0-1.416,0.568-1.514,1.33c-0.201,1.561-0.611,4.042-1.263,4.868c-0.977,1.239-0.977,1.8-0.271,2.288
						c0.706,0.488,1.086-0.196,1.574,0.347c0.436,0.484,1.086,0.651,1.493,0.651c0.441,0,1.019-0.167,1.455-0.651
						c0.488-0.543,0.868,0.142,1.573-0.347C521.534,175.071,521.534,174.511,520.557,173.272z"/>
					<g>
						<path style="fill:#FDAF99;" d="M508.056,168.647c0,0,1.51,0.619,3.4,0.141C511.456,168.788,509.78,171.337,508.056,168.647z"
							/>
						<path style="fill:#FDAF99;" d="M527.506,168.557c0,0-1.454,0.695-3.381,0.316
							C524.125,168.874,526.011,171.331,527.506,168.557z"/>
					</g>
					<g id="XMLID_46_">
						<g id="XMLID_48_">
							<g id="XMLID_49_">
								<path id="XMLID_51_" style="fill:#EE6191;" d="M514.492,178.878c-0.372-0.065-0.559-0.104-0.928-0.199
									c0,0,1.058,1.644,2.712,2.866c1.221,0.903,2.732,0.731,3.857-0.104c1.125-0.835,2.712-2.941,2.712-2.941
									s-1.991,0.946-3.206,0.729C518.423,179.014,514.492,178.878,514.492,178.878z"/>
								<path id="XMLID_50_" style="fill:#EE6191;" d="M515.886,178.805c0.821-0.208,1.216-0.304,1.58-0.253
									c0.375,0.165,0.797,0.185,1.178,0.057c0.699-0.294,1.384-0.035,1.767,0.033c1.748,0.311,2.433-0.141,2.433-0.141
									s-0.483,0.454-1.215,0.624c-0.668,0.155-1.171,0.476-1.865,0.637c-0.551,0.127-0.817,0.085-1.545,0.09
									c-1.091,0.009-1.179,0.021-2.172-0.169c-1.054-0.202-1.906-0.445-2.534-1.02
									C513.514,178.662,514.352,179.193,515.886,178.805z"/>
							</g>
						</g>
						<path id="XMLID_47_" style="fill:#CA5072;" d="M514.129,179.154c0.146,0.13,1.302,0.916,2.516,1.176
							c1.306,0.28,2.209,0.115,2.889-0.014c1.08-0.205,2.526-1.178,2.526-1.178s-1.699,0.672-3.019,0.443
							c-1.936-0.337-1.862,0.15-3.413-0.032C514.983,179.473,514.129,179.154,514.129,179.154z"/>
					</g>
				</g>
				<path style="fill:#348EC9;" d="M499.848,194.275c0,0-7.382,11.932,14.171,17.679c0,0,3.448-2.586,5.46-7.759
					C519.479,204.195,506.943,203.034,499.848,194.275z"/>
				<path style="fill:#348EC9;" d="M532.841,194.856c0,0,7.615,11.063-8.765,17.098c0,0-3.448-2.586-5.46-7.759
					C518.617,204.195,525.746,203.615,532.841,194.856z"/>
			</g>
			<g>
				<g>
					<path style="fill:#57906F;" d="M584.758,348.267c-2.193-8.892-3.674-17.672-6.553-26.396
						c-2.396-7.259-7.003-16.245-11.303-19.343c-4.683-3.374-0.275,11.009,3.616,15.545c-2.738,1.64-1.649,4.655-0.13,6.766
						c0.946,1.315,5.188,4.809,5.237,6.377c0.023,0.738-1.533,1.864-1.491,3.068c0.073,2.115,2.424,3.944,3.613,5.513
						c3.3,4.354,5.855,9.244,8.226,14.148C585.648,352.038,585.222,350.146,584.758,348.267z"/>
				</g>
				<g>
					<path style="fill:#4EAC7E;" d="M585.073,345.209c-1.917-12.699,6.581-22.76,19.004-24.676
						c1.555-0.24,10.973-1.548,11.846,0.256c1.53,3.16-8.97,3.953-10.254,4.303c5.817,3.383-8.825,6.258-11.136,7.556
						c4.006,2.172,0.207,3.934-1.914,5.573c-3.309,2.558-6.323,6.955-6.964,11.145C585.243,348.026,585.1,346.606,585.073,345.209z"
						/>
					<g>
						<path style="fill:#4EAC7E;" d="M585.978,347.193c-1.659-4.366-2.776-8.961-5.322-12.935c-1.625-2.536-3.785-4.845-5.787-7.105
							c-5.162-5.828-12.126-8.352-19.805-8.873c0.996,5.694,4.49,7.607,9.553,9.464c-6.182,3.202,7.202,6.901,9.479,8.041
							c-3.717,2.529,1.414,4.436,3.35,5.618c3.99,2.436,7.285,5.916,9.777,9.854C586.928,349.87,586.481,348.516,585.978,347.193z"
							/>
					</g>
				</g>
				<path style="fill:#6BC971;" d="M583.993,346.904c0.089-2.872,0.277-5.746,0.587-8.603c0.221-2.037,0.472-4.101,0.968-6.092
					c0.501-2.008,1.648-3.785,1.913-5.843c0.309-2.396-0.73-4.426-0.769-6.695c-0.024-1.377,0.886-2.824,1.108-4.285
					c0.395-2.595-0.35-4.781-1.802-6.904c-0.819-1.198-0.836-0.733-1.034-1.9c-0.53-3.124,0.355-6.053-0.952-9.2
					c-0.691-1.665-1.749-3.126-3.321-4.053c-1.991-1.173-2.042-0.496-2.617,1.446c-0.819,2.764-1.164,5.759-0.664,8.609
					c0.233,1.327,1.505,3.425,1.398,4.622c-0.035,0.391-1.08,1.548-1.243,1.931c-0.48,1.12-0.58,2.264-0.474,3.47
					c0.18,2.049,1.561,3.901,1.781,5.817c0.263,2.289-0.703,4.801-0.37,7.24c0.336,2.465,1.152,4.894,1.674,7.329
					c1.368,6.38,2.554,13.052,2.3,19.601C584.047,352.136,583.89,348.634,583.993,346.904z"/>
				<path style="fill:#4EAC7E;" d="M583.233,345.687c0.181-2.867,0.237-5.759,0.087-8.628c-0.2-3.836-2.46-7.863-1.964-11.547
					c0.194-1.438,1.439-3.052,1.499-4.387c0.063-1.4-1.116-2.992-1.034-4.582c0.168-3.273,3.297-4.256,3.972-6.648
					c0.776-2.749,0.201-5.277,1.959-7.878c0.971-1.437,2.283-2.48,3.917-3.074c2.205-0.8,2.312-0.467,2.846,1.572
					c0.646,2.47,0.753,5.185-0.053,7.626c-0.319,0.965-2.042,3.109-1.968,3.908c0.143,1.542,1.791,2.394,1.55,4.434
					c-0.253,2.146-2.196,3.558-2.627,5.42c-0.403,1.743,0.341,3.938-0.094,5.847c-0.507,2.222-1.703,4.329-2.528,6.45
					c-2.139,5.495-4.151,11.438-4.469,17.369C582.864,350.39,583.188,347.305,583.233,345.687z"/>
				<path style="fill:#57906F;" d="M583.591,344.168c1.339-10.726,4.747-23.012,12.987-30.487c2.357-2.138,5.119-3.89,8.211-4.729
					c0.594-0.161,3.653-1.077,4.227-0.486c0.863,0.889-0.978,3.966-1.522,4.579c-1.334,1.501-3.438,2.347-5.162,3.348
					c4.242,4.667-5.764,8.817-8.605,11.138c3.338,3.516-0.945,6.035-3.092,8.627c-3.263,3.939-6.048,8.882-7.429,13.821
					C583.085,348.041,583.289,346.08,583.591,344.168z"/>
				<polygon style="fill:#FFFFFF;" points="587.596,361.387 575.584,361.387 571.872,340.23 591.74,340.23 				"/>
				<polygon style="fill:#D2DCEB;" points="589.284,361.387 577.273,361.387 573.561,340.23 593.428,340.23 				"/>
			</g>
			<g>
				<g>
					
						<rect x="413.564" y="358.416" transform="matrix(-1 -1.224647e-16 1.224647e-16 -1 875.0366 721.0948)" style="fill:#FFFFFF;" width="47.909" height="4.263"/>
					<polygon style="fill:#FFFFFF;" points="439.516,359.711 457.582,359.711 475.647,302.565 461.912,302.565 					"/>
					<polygon style="fill:#D2DCEB;" points="444.702,359.711 515.209,359.711 533.274,302.565 462.767,302.565 					"/>
					
						<rect x="439.516" y="358.416" transform="matrix(-1 -1.224647e-16 1.224647e-16 -1 955.6723 721.0948)" style="fill:#D2DCEB;" width="76.64" height="4.263"/>
					<path style="fill:#A6AEBA;" d="M483.425,333.918c-2.041,4.374-0.604,9.099,3.208,10.553c3.812,1.453,8.557-0.914,10.598-5.289
						c2.041-4.375,0.604-9.099-3.208-10.553C490.211,327.176,485.466,329.543,483.425,333.918z"/>
				</g>
			</g>
			<g>
				<g>
					<g>
						<path style="fill:#FFFFFF;" d="M176.251,360.2h-5.701c-2.355,0-4.358-1.716-4.72-4.044l-2.277-14.668h19.694l-2.277,14.668
							C180.61,358.483,178.606,360.2,176.251,360.2z"/>
						<g>
							<path style="fill:#FFFFFF;" d="M181.533,357.074c-0.208,0-0.415-0.007-0.63-0.023l-0.267-0.021l-0.212-0.164
								c-0.142-0.107-3.468-2.711-3.468-6.439c0-3.816,2.534-6.922,5.649-6.922c1.878,0,3.55,0.71,4.587,1.95
								c0.74,0.885,1.525,2.497,1.051,5.131l0,0C187.493,354.741,185.061,357.074,181.533,357.074z M181.318,355.278
								c3.596,0.114,4.731-2.644,5.159-5.01l0,0c0.283-1.567,0.058-2.8-0.663-3.662c-0.694-0.832-1.864-1.308-3.209-1.308
								c-2.125,0-3.856,2.3-3.856,5.128C178.749,352.807,180.683,354.713,181.318,355.278z"/>
						</g>
					</g>
					<polygon style="fill:#D2DCEB;" points="161.592,361.488 186.552,361.488 190.533,357.081 157.611,357.081 					"/>
				</g>
				<g>
					<g>
						<path style="fill:#FFFFFF;" d="M331.056,360.2h5.701c2.355,0,4.358-1.716,4.72-4.044l2.277-14.668H324.06l2.277,14.668
							C326.698,358.483,328.701,360.2,331.056,360.2z"/>
						<g>
							<path style="fill:#FFFFFF;" d="M319.065,350.586L319.065,350.586c-0.474-2.634,0.311-4.246,1.051-5.131
								c1.037-1.24,2.709-1.95,4.587-1.95c3.115,0,5.649,3.106,5.649,6.922c0,3.727-3.326,6.331-3.468,6.439l-0.212,0.164
								l-0.266,0.021c-0.215,0.016-0.423,0.023-0.631,0.023C322.246,357.074,319.815,354.741,319.065,350.586z M328.558,350.427
								c0-2.828-1.73-5.128-3.855-5.128c-1.345,0-2.515,0.476-3.209,1.308c-0.721,0.862-0.946,2.095-0.663,3.662l0,0
								c0.427,2.366,1.562,5.124,5.159,5.01C326.625,354.713,328.558,352.807,328.558,350.427z"/>
						</g>
					</g>
					<polygon style="fill:#D2DCEB;" points="345.716,361.488 320.756,361.488 316.775,357.081 349.697,357.081 					"/>
				</g>
			</g>
		</g>
	</g>
</g>
</svg>
