<svg version="1.1" xmlns="http://www.w3.org/2000/svg" xmlns:xlink="http://www.w3.org/1999/xlink" x="0px" y="0px" viewBox="0 0 500 500" style="enable-background:new 0 0 500 500;" xml:space="preserve">

<g id="OBJECTS">
	<g id="shadow">
		<g>
			<defs>
				<path id="XMLID_23_" d="M453.471,305.819c1.11,112.369-92.695,110.791-205.069,110.791
					c-112.374,0-201.874,1.584-201.874-110.791S155.477,91.098,241.091,91.098C394.083,91.098,452.58,215.592,453.471,305.819z"/>
			</defs>
			<use xlink:href="#XMLID_23_"  style="overflow:visible;fill:#D6F1F2;"/>
			<clipPath id="XMLID_00000017500059777147108220000015731091041755467400_">
				<use xlink:href="#XMLID_23_"  style="overflow:visible;"/>
			</clipPath>
			<path style="opacity:0.3;clip-path:url(#XMLID_00000017500059777147108220000015731091041755467400_);fill:#FFFFFF;" d="
				M326.162,69.432c66.81,48.612,97.438,136.834,97.438,216.792c0,119.364-97.437,117.682-215.559,117.682
				c-56.981,0-108.362,0.387-146.291-12.607c36.826,34.041,104.424,33.319,182.553,33.319c118.122,0,215.559,1.682,215.559-117.682
				C459.862,213.71,418.236,109.244,326.162,69.432z"/>
			<path style="opacity:0.4;clip-path:url(#XMLID_00000017500059777147108220000015731091041755467400_);fill:#9EAFAE;" d="
				M409.875,228.375v63.566h-32.421v-59.308h-5.45v-10.258h-3.689v-12.333h-4.736v-5.667l-7.329-8.417l-6.756,8.417v5.667h-4.736
				v12.333h-3.689v10.258h-5.45v25.047h-36.301v-25.047l-41.835,28.234v60.98h-26.384V207.347h-9.631v-10.074H207.13v-18h-4.662
				V131.7c0-0.553-0.448-1-1-1c-0.552,0-1,0.447-1,1v47.573h-4.662v18h-14.338v10.074h-8.866v84.594h-14.284v-59.308h-41.835v25.047
				h-12.185v-23.054H95.05v-10.074h-10v-18h-20v18h-10v10.074h-9.249v188.709h28.841h29.656h12.185h16.657h9.503h15.675h14.284
				h28.538h26.562h3.397h26.384h12.054h25.121h4.66h36.301h17.536h9.503h14.796h32.421v11.039h50v-206H409.875z"/>
		</g>
		<path style="fill:#F2F2F2;" d="M420.887,414.011c0,10.998-75.44,19.914-168.5,19.914s-168.5-8.916-168.5-19.914
			c0-10.998,67.837-11.925,160.897-11.925S420.887,403.012,420.887,414.011z"/>
	</g>
	<g id="elements_1_">
		<g>
			
				<line style="fill:none;stroke:#FFFFFF;stroke-width:3.2821;stroke-linecap:round;stroke-linejoin:round;stroke-miterlimit:10;" x1="59.953" y1="336.978" x2="154.211" y2="336.978"/>
			
				<line style="fill:none;stroke:#FFFFFF;stroke-width:3.2821;stroke-linecap:round;stroke-linejoin:round;stroke-miterlimit:10;" x1="72.088" y1="355.911" x2="154.211" y2="355.911"/>
			
				<line style="fill:none;stroke:#FFFFFF;stroke-width:3.2821;stroke-linecap:round;stroke-linejoin:round;stroke-miterlimit:10;" x1="91.613" y1="374.844" x2="154.211" y2="374.844"/>
		</g>
		<g>
			<defs>
				<path id="XMLID_38_" d="M282.47,385.476H105.479V251.613c0-8.908,7.221-16.129,16.129-16.129h144.732
					c8.908,0,16.129,7.221,16.129,16.129V385.476z"/>
			</defs>
			<use xlink:href="#XMLID_38_"  style="overflow:visible;fill:#FDC94F;"/>
			<clipPath id="XMLID_00000019641878001080771840000002668809493996355753_">
				<use xlink:href="#XMLID_38_"  style="overflow:visible;"/>
			</clipPath>
			<path style="opacity:0.02;clip-path:url(#XMLID_00000019641878001080771840000002668809493996355753_);fill:#383838;" d="
				M105,234c0,0,40.823,153.106,152,160l-181,1L105,234z"/>
			<path style="clip-path:url(#XMLID_00000019641878001080771840000002668809493996355753_);fill:#F9D698;" d="M107,391.5L107,391.5
				c-3.85,0-7-3.15-7-7v-31c0-3.85,3.15-7,7-7l0,0c3.85,0,7,3.15,7,7v31C114,388.35,110.85,391.5,107,391.5z"/>
			
				<circle style="clip-path:url(#XMLID_00000019641878001080771840000002668809493996355753_);fill:#383838;" cx="152" cy="395.333" r="37"/>
		</g>
		<g>
			<defs>
				<path id="XMLID_36_" d="M282,275h64.122c4.997,0,9.74,2.2,12.967,6.014l45.898,54.243c2.595,3.066,4.046,6.938,4.107,10.954
					l0.643,42.431c0.145,9.587-7.507,17.478-17.095,17.627L281,408L282,275z"/>
			</defs>
			<use xlink:href="#XMLID_36_"  style="overflow:visible;fill:#FDC94F;"/>
			<clipPath id="XMLID_00000062913216633406477360000016862937614783327411_">
				<use xlink:href="#XMLID_36_"  style="overflow:visible;"/>
			</clipPath>
			<path style="clip-path:url(#XMLID_00000062913216633406477360000016862937614783327411_);fill:#F9D698;" d="M422.333,389.333h-26
				c-3.667,0-6.667-3-6.667-6.667l0,0c0-3.667,3-6.667,6.667-6.667h26c3.667,0,6.667,3,6.667,6.667l0,0
				C429,386.333,426,389.333,422.333,389.333z"/>
			
				<circle style="clip-path:url(#XMLID_00000062913216633406477360000016862937614783327411_);fill:#383838;" cx="339" cy="395.333" r="37"/>
		</g>
		<g>
			<defs>
				<path id="XMLID_37_" d="M281,408H102.5c-6.351,0-11.5-5.149-11.5-11.5l0,0c0-6.351,5.149-11.5,11.5-11.5H281V408z"/>
			</defs>
			<use xlink:href="#XMLID_37_"  style="overflow:visible;fill:#FCBB38;"/>
			<clipPath id="XMLID_00000091003795623071172640000015235892214418063768_">
				<use xlink:href="#XMLID_37_"  style="overflow:visible;"/>
			</clipPath>
			
				<rect x="90" y="403" style="opacity:0.3;clip-path:url(#XMLID_00000091003795623071172640000015235892214418063768_);fill:#E5A535;" width="190" height="8"/>
			
				<circle style="clip-path:url(#XMLID_00000091003795623071172640000015235892214418063768_);fill:#383838;" cx="152" cy="395.333" r="37"/>
		</g>
		<path style="fill:#FCCE70;" d="M282.47,235.484"/>
		<g>
			<path style="fill:#B5B5B5;" d="M170.878,392.888l-2.335-5.526l-7.732,3.268c-2.105,0.889-4.395-0.795-4.173-3.069l0.816-8.353
				l-5.972-0.584l-0.639,6.539c-0.241,2.463-3.183,3.602-5.02,1.944l-4.878-4.404l-4.021,4.453l6.725,6.071
				c1.637,1.478,1.185,4.155-0.846,5.014l-8.344,3.526l2.335,5.526l7.732-3.268c2.105-0.889,4.395,0.795,4.173,3.069l-0.816,8.353
				l5.972,0.584l0.639-6.539c0.241-2.463,3.183-3.602,5.02-1.944l4.879,4.404l4.021-4.454l-6.725-6.071
				c-1.637-1.478-1.185-4.155,0.846-5.014L170.878,392.888z"/>
			<g>
				<defs>
					<path id="XMLID_26_" d="M175.395,386.999c-5.592-13.035-20.692-19.069-33.727-13.478c-13.035,5.592-19.07,20.692-13.478,33.727
						c5.592,13.035,20.692,19.069,33.727,13.478C174.952,415.134,180.986,400.034,175.395,386.999z M158.726,413.293
						c-8.929,3.83-19.272-0.303-23.102-9.232c-3.83-8.929,0.303-19.272,9.232-23.102c8.929-3.83,19.272,0.303,23.102,9.232
						C171.788,399.12,167.655,409.463,158.726,413.293z"/>
				</defs>
				<use xlink:href="#XMLID_26_"  style="overflow:visible;fill:#A4A6A5;"/>
				<clipPath id="XMLID_00000116236791769122534630000005050480259272938885_">
					<use xlink:href="#XMLID_26_"  style="overflow:visible;"/>
				</clipPath>
				<g style="clip-path:url(#XMLID_00000116236791769122534630000005050480259272938885_);">
					<path style="fill:#9A9B9A;" d="M173.886,388.681c-1.726-4.023-4.473-7.294-7.807-9.644c2.193,2.076,4.01,4.621,5.277,7.572
						c4.969,11.583-0.393,25.001-11.977,29.97c-7.56,3.243-15.9,2.083-22.164-2.333c6.414,6.07,16.062,8.107,24.694,4.404
						C173.493,413.682,178.855,400.264,173.886,388.681z"/>
				</g>
			</g>
			<g>
				<g>
					<defs>
						<path id="XMLID_25_" d="M181.49,384.384c-7.036-16.402-26.036-23.994-42.438-16.959s-23.994,26.036-16.959,42.438
							c7.036,16.402,26.036,23.994,42.438,16.958S188.526,400.786,181.49,384.384z M160.638,417.932
							c-11.311,4.852-24.414-0.384-29.266-11.695c-4.852-11.311,0.384-24.414,11.695-29.266
							c11.311-4.852,24.414,0.384,29.266,11.695C177.185,399.978,171.949,413.08,160.638,417.932z"/>
					</defs>
					<use xlink:href="#XMLID_25_"  style="overflow:visible;fill:#5B5B5B;"/>
					<clipPath id="XMLID_00000048468967686667107470000016962282704316714672_">
						<use xlink:href="#XMLID_25_"  style="overflow:visible;"/>
					</clipPath>
					<g style="opacity:0.2;clip-path:url(#XMLID_00000048468967686667107470000016962282704316714672_);">
						<path style="fill:#161616;" d="M182.656,385.184c-2.012-4.69-5.005-8.656-8.634-11.77c2.096,2.438,3.863,5.23,5.198,8.341
							c7.036,16.402-0.557,35.402-16.959,42.437c-11.711,5.024-24.745,2.585-33.804-5.189c8.954,10.413,23.949,14.319,37.24,8.617
							C182.1,420.586,189.692,401.586,182.656,385.184z"/>
					</g>
				</g>
			</g>
			<g>
				<defs>
					<path id="XMLID_24_" d="M154.226,393.252c0,0.949-0.769,1.718-1.718,1.718s-1.718-0.769-1.718-1.718
						c0-0.949,0.769-1.718,1.718-1.718S154.226,392.304,154.226,393.252z"/>
				</defs>
				<use xlink:href="#XMLID_24_"  style="overflow:visible;fill:#727172;"/>
				<clipPath id="XMLID_00000044891573066973893580000007578287075237009848_">
					<use xlink:href="#XMLID_24_"  style="overflow:visible;"/>
				</clipPath>
				<path style="opacity:0.3;clip-path:url(#XMLID_00000044891573066973893580000007578287075237009848_);fill:#5B5B5B;" d="
					M153.754,391.824c0.12,0.252,0.192,0.531,0.192,0.829c0,1.075-0.871,1.946-1.946,1.946c-0.577,0-1.091-0.256-1.447-0.656
					c0.312,0.658,0.977,1.117,1.754,1.117c1.075,0,1.946-0.871,1.946-1.946C154.253,392.617,154.061,392.168,153.754,391.824z"/>
			</g>
			<g>
				<defs>
					<path id="XMLID_27_" d="M154.226,401.405c0,0.949-0.769,1.718-1.718,1.718s-1.718-0.769-1.718-1.718
						c0-0.949,0.769-1.718,1.718-1.718S154.226,400.456,154.226,401.405z"/>
				</defs>
				<use xlink:href="#XMLID_27_"  style="overflow:visible;fill:#727172;"/>
				<clipPath id="XMLID_00000075860740309727618600000001952126171321489800_">
					<use xlink:href="#XMLID_27_"  style="overflow:visible;"/>
				</clipPath>
				<path style="opacity:0.3;clip-path:url(#XMLID_00000075860740309727618600000001952126171321489800_);fill:#5B5B5B;" d="
					M153.754,399.977c0.12,0.253,0.192,0.532,0.192,0.83c0,1.075-0.871,1.946-1.946,1.946c-0.577,0-1.091-0.256-1.447-0.656
					c0.312,0.658,0.977,1.117,1.754,1.117c1.075,0,1.946-0.871,1.946-1.946C154.253,400.77,154.061,400.321,153.754,399.977z"/>
			</g>
			<g>
				<defs>
					<path id="XMLID_29_" d="M156.099,399.139c-0.949,0-1.718-0.769-1.718-1.718s0.769-1.718,1.718-1.718
						c0.949,0,1.718,0.769,1.718,1.718C157.817,398.37,157.048,399.139,156.099,399.139z"/>
				</defs>
				<use xlink:href="#XMLID_29_"  style="overflow:visible;fill:#727172;"/>
				<clipPath id="XMLID_00000016780341124107484630000007314575449445251481_">
					<use xlink:href="#XMLID_29_"  style="overflow:visible;"/>
				</clipPath>
				<path style="opacity:0.3;clip-path:url(#XMLID_00000016780341124107484630000007314575449445251481_);fill:#5B5B5B;" d="
					M157.527,398.667c-0.253,0.12-0.532,0.192-0.83,0.192c-1.075,0-1.946-0.871-1.946-1.946c0-0.577,0.256-1.091,0.656-1.447
					c-0.658,0.312-1.117,0.977-1.117,1.754c0,1.075,0.872,1.946,1.946,1.946C156.734,399.167,157.183,398.974,157.527,398.667z"/>
			</g>
			<g>
				<defs>
					<path id="XMLID_28_" d="M148.738,399.139c-0.949,0-1.718-0.769-1.718-1.718s0.769-1.718,1.718-1.718
						c0.949,0,1.718,0.769,1.718,1.718C150.456,398.37,149.687,399.139,148.738,399.139z"/>
				</defs>
				<use xlink:href="#XMLID_28_"  style="overflow:visible;fill:#727172;"/>
				<clipPath id="XMLID_00000044167240532020850870000015100518796065679241_">
					<use xlink:href="#XMLID_28_"  style="overflow:visible;"/>
				</clipPath>
				<path style="opacity:0.3;clip-path:url(#XMLID_00000044167240532020850870000015100518796065679241_);fill:#5B5B5B;" d="
					M150.167,398.667c-0.253,0.12-0.532,0.192-0.83,0.192c-1.075,0-1.946-0.871-1.946-1.946c0-0.577,0.256-1.091,0.656-1.447
					c-0.658,0.312-1.117,0.977-1.117,1.754c0,1.075,0.871,1.946,1.946,1.946C149.374,399.167,149.823,398.974,150.167,398.667z"/>
			</g>
		</g>
		<g>
			<path style="fill:#B5B5B5;" d="M357.878,392.888l-2.335-5.526l-7.732,3.268c-2.105,0.889-4.395-0.795-4.173-3.069l0.816-8.353
				l-5.972-0.584l-0.639,6.539c-0.241,2.463-3.183,3.602-5.02,1.944l-4.879-4.404l-4.021,4.453l6.725,6.071
				c1.637,1.478,1.185,4.155-0.846,5.014l-8.344,3.526l2.335,5.526l7.732-3.268c2.105-0.889,4.395,0.795,4.173,3.069l-0.816,8.353
				l5.972,0.584l0.639-6.539c0.241-2.463,3.183-3.602,5.02-1.944l4.879,4.404l4.021-4.454l-6.725-6.071
				c-1.637-1.478-1.185-4.155,0.846-5.014L357.878,392.888z"/>
			<g>
				<defs>
					<path id="XMLID_35_" d="M362.395,386.999c-5.592-13.035-20.692-19.069-33.727-13.478c-13.035,5.592-19.07,20.692-13.478,33.727
						c5.592,13.035,20.692,19.069,33.727,13.478C361.952,415.134,367.986,400.034,362.395,386.999z M345.726,413.293
						c-8.929,3.83-19.272-0.303-23.102-9.232c-3.83-8.929,0.303-19.272,9.232-23.102c8.929-3.83,19.272,0.303,23.102,9.232
						C358.788,399.12,354.655,409.463,345.726,413.293z"/>
				</defs>
				<use xlink:href="#XMLID_35_"  style="overflow:visible;fill:#A4A6A5;"/>
				<clipPath id="XMLID_00000011712589464191313960000016807231953434873014_">
					<use xlink:href="#XMLID_35_"  style="overflow:visible;"/>
				</clipPath>
				<g style="clip-path:url(#XMLID_00000011712589464191313960000016807231953434873014_);">
					<path style="fill:#9A9B9A;" d="M360.886,388.681c-1.726-4.023-4.473-7.294-7.807-9.644c2.193,2.076,4.01,4.621,5.277,7.572
						c4.969,11.583-0.393,25.001-11.977,29.97c-7.56,3.243-15.9,2.083-22.164-2.333c6.414,6.07,16.062,8.107,24.694,4.404
						C360.493,413.682,365.855,400.264,360.886,388.681z"/>
				</g>
			</g>
			<g>
				<g>
					<defs>
						<path id="XMLID_34_" d="M368.49,384.384c-7.036-16.402-26.036-23.994-42.438-16.959s-23.995,26.036-16.959,42.438
							c7.036,16.402,26.036,23.994,42.438,16.958S375.526,400.786,368.49,384.384z M347.638,417.932
							c-11.311,4.852-24.414-0.384-29.266-11.695c-4.852-11.311,0.384-24.414,11.695-29.266
							c11.311-4.852,24.414,0.384,29.266,11.695C364.185,399.978,358.949,413.08,347.638,417.932z"/>
					</defs>
					<use xlink:href="#XMLID_34_"  style="overflow:visible;fill:#5B5B5B;"/>
					<clipPath id="XMLID_00000078767168696905177310000016637834095005363877_">
						<use xlink:href="#XMLID_34_"  style="overflow:visible;"/>
					</clipPath>
					<g style="opacity:0.2;clip-path:url(#XMLID_00000078767168696905177310000016637834095005363877_);">
						<path style="fill:#161616;" d="M369.656,385.184c-2.012-4.69-5.005-8.656-8.634-11.77c2.096,2.438,3.863,5.23,5.198,8.341
							c7.036,16.402-0.557,35.402-16.959,42.437c-11.711,5.024-24.745,2.585-33.804-5.189c8.954,10.413,23.949,14.319,37.24,8.617
							C369.1,420.586,376.692,401.586,369.656,385.184z"/>
					</g>
				</g>
			</g>
			<g>
				<defs>
					<path id="XMLID_33_" d="M341.226,393.252c0,0.949-0.769,1.718-1.718,1.718s-1.718-0.769-1.718-1.718
						c0-0.949,0.769-1.718,1.718-1.718S341.226,392.304,341.226,393.252z"/>
				</defs>
				<use xlink:href="#XMLID_33_"  style="overflow:visible;fill:#727172;"/>
				<clipPath id="XMLID_00000121992636778528052530000000450184657778220731_">
					<use xlink:href="#XMLID_33_"  style="overflow:visible;"/>
				</clipPath>
				<path style="opacity:0.3;clip-path:url(#XMLID_00000121992636778528052530000000450184657778220731_);fill:#5B5B5B;" d="
					M340.754,391.824c0.12,0.252,0.192,0.531,0.192,0.829c0,1.075-0.871,1.946-1.946,1.946c-0.578,0-1.091-0.256-1.447-0.656
					c0.312,0.658,0.978,1.117,1.754,1.117c1.075,0,1.946-0.871,1.946-1.946C341.253,392.617,341.061,392.168,340.754,391.824z"/>
			</g>
			<g>
				<defs>
					<path id="XMLID_32_" d="M341.226,401.405c0,0.949-0.769,1.718-1.718,1.718s-1.718-0.769-1.718-1.718
						c0-0.949,0.769-1.718,1.718-1.718S341.226,400.456,341.226,401.405z"/>
				</defs>
				<use xlink:href="#XMLID_32_"  style="overflow:visible;fill:#727172;"/>
				<clipPath id="XMLID_00000032617151628384080330000000523168837112737417_">
					<use xlink:href="#XMLID_32_"  style="overflow:visible;"/>
				</clipPath>
				<path style="opacity:0.3;clip-path:url(#XMLID_00000032617151628384080330000000523168837112737417_);fill:#5B5B5B;" d="
					M340.754,399.977c0.12,0.253,0.192,0.532,0.192,0.83c0,1.075-0.871,1.946-1.946,1.946c-0.578,0-1.091-0.256-1.447-0.656
					c0.312,0.658,0.978,1.117,1.754,1.117c1.075,0,1.946-0.871,1.946-1.946C341.253,400.77,341.061,400.321,340.754,399.977z"/>
			</g>
			<g>
				<defs>
					<path id="XMLID_31_" d="M343.099,399.139c-0.949,0-1.718-0.769-1.718-1.718s0.769-1.718,1.718-1.718
						c0.949,0,1.718,0.769,1.718,1.718C344.817,398.37,344.048,399.139,343.099,399.139z"/>
				</defs>
				<use xlink:href="#XMLID_31_"  style="overflow:visible;fill:#727172;"/>
				<clipPath id="XMLID_00000023973919435234493710000000134219966038910866_">
					<use xlink:href="#XMLID_31_"  style="overflow:visible;"/>
				</clipPath>
				<path style="opacity:0.3;clip-path:url(#XMLID_00000023973919435234493710000000134219966038910866_);fill:#5B5B5B;" d="
					M344.527,398.667c-0.253,0.12-0.532,0.192-0.83,0.192c-1.075,0-1.946-0.871-1.946-1.946c0-0.577,0.256-1.091,0.656-1.447
					c-0.658,0.312-1.117,0.977-1.117,1.754c0,1.075,0.871,1.946,1.946,1.946C343.734,399.167,344.183,398.974,344.527,398.667z"/>
			</g>
			<g>
				<defs>
					<path id="XMLID_30_" d="M335.738,399.139c-0.949,0-1.718-0.769-1.718-1.718s0.769-1.718,1.718-1.718
						c0.949,0,1.718,0.769,1.718,1.718C337.456,398.37,336.687,399.139,335.738,399.139z"/>
				</defs>
				<use xlink:href="#XMLID_30_"  style="overflow:visible;fill:#727172;"/>
				<clipPath id="XMLID_00000009551580187596151800000007019402117365881222_">
					<use xlink:href="#XMLID_30_"  style="overflow:visible;"/>
				</clipPath>
				<path style="opacity:0.3;clip-path:url(#XMLID_00000009551580187596151800000007019402117365881222_);fill:#5B5B5B;" d="
					M337.167,398.667c-0.253,0.12-0.532,0.192-0.83,0.192c-1.075,0-1.946-0.871-1.946-1.946c0-0.577,0.256-1.091,0.656-1.447
					c-0.658,0.312-1.117,0.977-1.117,1.754c0,1.075,0.871,1.946,1.946,1.946C336.374,399.167,336.823,398.974,337.167,398.667z"/>
			</g>
		</g>
		<g>
			<defs>
				<path id="XMLID_1_" d="M295.547,339.333H393l-44-52l-53.53,0.569c-3.954,0.042-7.137,3.259-7.137,7.213v37.004
					C288.333,336.104,291.563,339.333,295.547,339.333z"/>
			</defs>
			<use xlink:href="#XMLID_1_"  style="overflow:visible;fill:#D6F1F2;"/>
			<clipPath id="XMLID_00000010302896500879346380000002783820935413056686_">
				<use xlink:href="#XMLID_1_"  style="overflow:visible;"/>
			</clipPath>
			<g style="clip-path:url(#XMLID_00000010302896500879346380000002783820935413056686_);">
				
					<path style="fill:none;stroke:#EAA936;stroke-width:3.1418;stroke-linecap:round;stroke-linejoin:round;stroke-miterlimit:10;" d="
					M361.181,333.438c0,0,7.265,1.964,7.069,8.444"/>
				<g id="elements">
					<g id="element_1_">
						<g>
							<defs>
								<path id="XMLID_17_" d="M327.802,325.168c0.138,2.497,2.129,4.758,3.306,6.964l4.359,7.387
									c1.965,4.159,4.41,3.978,8.382,3.135l13.702-4.171l1.644-3.344l0.459-0.271c-18.321,6.966-21.028-0.613-22.137-3.577
									c-0.202-0.539-0.685-1.407-0.85-1.958l0,0c-0.661-1.459-0.905-1.311-1.409-2.831c-0.765-2.305-1.922-5.696-5.336-5.825
									C327.881,320.6,327.649,322.396,327.802,325.168z"/>
							</defs>
							<use xlink:href="#XMLID_17_"  style="overflow:visible;fill:#E59F83;"/>
							<clipPath id="XMLID_00000074414700093984882240000002803351541730829985_">
								<use xlink:href="#XMLID_17_"  style="overflow:visible;"/>
							</clipPath>
							<path style="opacity:0.4;clip-path:url(#XMLID_00000074414700093984882240000002803351541730829985_);fill:#EAA286;" d="
								M359.55,337.978c-18.816,5.713-20.207,6.522-26.261-4.603c-1.827-3.359-4.081-8.941-3.368-12.698v0l-4.364,2.47l9.798,16.788
								c1.274,4.328,4.794,4.809,7.366,3.306l17.027-4.82L359.55,337.978L359.55,337.978z"/>
						</g>
					</g>
					
						<line style="fill:none;stroke:#DD9D36;stroke-width:3.1418;stroke-linecap:round;stroke-linejoin:round;stroke-miterlimit:10;" x1="362.556" y1="329.904" x2="358.554" y2="340.486"/>
					<g>
						<defs>
							<path id="XMLID_121_" d="M320.338,349.54c-1.301-0.289-0.968-2.486-0.936-3.819c0.11-4.476-1.706-14.074,2.348-20.971
								c0.754-1.283,2.743-4.676,4.635-5.34c1.11-0.389,1.493-2.973,1.961-4.658l6.812,3.464c0,0-1.762,1.182-0.262,4.32
								c1.704,3.564,0.388,12.813,0.388,12.813s1.882,9.521,0.135,15.463c-0.28,0.953-1.287,2.205-2.263,2.018L320.338,349.54z"/>
						</defs>
						<use xlink:href="#XMLID_121_"  style="overflow:visible;fill:#DD9D36;"/>
						<clipPath id="XMLID_00000072272675422548750000000014339100014080442814_">
							<use xlink:href="#XMLID_121_"  style="overflow:visible;"/>
						</clipPath>
						<path style="clip-path:url(#XMLID_00000072272675422548750000000014339100014080442814_);fill:#F7AE8B;" d="M325.167,319.333
							c5.25-0.5,5.088,0.752,11.469,3.501c0.916,0.394,2.902-2.564,2.902-2.564l-6.436-7.036l-7.229-0.941L325.167,319.333z"/>
						<path style="opacity:0.1;clip-path:url(#XMLID_00000072272675422548750000000014339100014080442814_);fill:#AD3E47;" d="
							M327.295,327.622c0,0,3.984,12.962,7.531,16.807c3.831,4.153,13.486-1.285,13.486-1.285l-10.615-2.473L327.295,327.622z"/>
						<path id="XMLID_131_" style="clip-path:url(#XMLID_00000072272675422548750000000014339100014080442814_);fill:#EFA689;" d="
							M343.546,299.987c-1.16,19.776-1.412,22.16-10.15,19.411c-8.628-2.715-13.173-7.303-15.252-19.132
							c-1.976-11.248,3.099-11.014,10.802-11.512C342.046,287.907,343.851,294.783,343.546,299.987z"/>
						<path style="opacity:0.1;clip-path:url(#XMLID_00000072272675422548750000000014339100014080442814_);fill:#AD3E47;" d="
							M326.385,319.41c0,0-5.425,0.671-5.939,20.568l-1.763,11.511l-2.941-2.548C315.742,348.942,316.398,319.836,326.385,319.41z"
							/>
					</g>
					<g id="element_12_">
						<g>
							<defs>
								<path id="XMLID_120_" d="M328.534,327.543c0.138,2.497,1.093,3.467,2.271,5.674l4.359,7.387
									c1.965,4.159,4.41,3.978,8.382,3.135l13.702-4.171l1.644-3.344l0.459-0.271c-13.092,2.886-16.702,3.749-18.35,1.048
									c-3.483-5.709-3.335-4.283-3.5-4.833l-1.103-5.298c-0.661-1.459,0.504,1.52,0,0c-0.765-2.305-1.524-3.04-4.938-3.169
									C329.419,323.623,328.381,324.771,328.534,327.543z"/>
							</defs>
							<use xlink:href="#XMLID_120_"  style="overflow:visible;fill:#F7AE8B;"/>
							<clipPath id="XMLID_00000015315880676617117710000017537907169122577035_">
								<use xlink:href="#XMLID_120_"  style="overflow:visible;"/>
							</clipPath>
							<path style="opacity:0.4;clip-path:url(#XMLID_00000015315880676617117710000017537907169122577035_);fill:#EAA286;" d="
								M359.246,339.062c-18.816,5.713-20.207,6.522-26.261-4.603c-1.827-3.359-4.081-8.941-3.368-12.698v0l-4.364,2.47
								l9.798,16.788c1.274,4.328,4.794,4.809,7.366,3.306l17.027-4.82L359.246,339.062L359.246,339.062z"/>
						</g>
					</g>
					<g>
						<g>
							<g>
								<g>
									<g>
										<defs>
											<path id="XMLID_129_" d="M340.697,294.061c1.549,1.783,2.394,4.089,2.438,6.451c0.296,16.181-0.019,21.93-9.626,18.135
												c-6.95-2.746-11.839-4.866-13.412-16.772c-0.359-2.715,0.864-9.94,8.489-11.145
												C335.068,289.705,338.693,291.755,340.697,294.061z"/>
										</defs>
										<use xlink:href="#XMLID_129_"  style="overflow:visible;fill:#F7AE8B;"/>
										<clipPath id="XMLID_00000078747529314600417500000014656123955471044748_">
											<use xlink:href="#XMLID_129_"  style="overflow:visible;"/>
										</clipPath>
										<path style="opacity:0.05;clip-path:url(#XMLID_00000078747529314600417500000014656123955471044748_);fill:#99594B;" d="
											M351.179,276.114c0,0,9.008,47.168-16.558,49.161c0,0,18.586,3.126,21.728-7.486
											C359.492,307.177,365.857,274.463,351.179,276.114z"/>
									</g>
								</g>
								<path style="fill:#C64747;" d="M326.082,326.784"/>
							</g>
						</g>
						<path style="fill:#F7AE8B;" d="M342.544,308.064c0,0,2.303,4.265,1.928,4.785c-0.489,0.678-3.027,0.799-3.027,0.799"/>
						<g>
							<path style="fill:#1D1D1B;" d="M341.075,308.907c-0.053,1.061-0.748,1.888-1.553,1.848s-1.414-0.933-1.361-1.993
								c0.053-1.061,0.748-1.888,1.553-1.848C340.518,306.953,341.128,307.846,341.075,308.907z"/>
						</g>
						<path style="fill:#F7AE8B;" d="M327.643,309.642c0.333-1.715,1.887-2.856,3.472-2.548c1.585,0.308,2.599,1.947,2.266,3.663
							c-0.333,1.715-1.887,2.856-3.472,2.548C328.325,312.997,327.31,311.358,327.643,309.642z"/>
						
							<path style="fill:none;stroke:#F27F46;stroke-width:1.2695;stroke-linecap:round;stroke-linejoin:round;stroke-miterlimit:10;" d="
							M337.169,305.65c0,0,1.481-1.524,3.577-0.771"/>
					</g>
					<path style="fill:none;stroke:#FFFFFF;stroke-width:0.3927;stroke-miterlimit:10;" d="M336.038,312.425"/>
					<path style="fill:none;stroke:#FFFFFF;stroke-width:0.3927;stroke-miterlimit:10;" d="M336.23,317.604L336.23,317.604
						c-3.288-0.495-6.638-1.59-10.492-3.966"/>
					<g>
						<defs>
							<path id="XMLID_13_" d="M335.001,311.969c0,0,8.768-0.748,8.871-1.725c0.094-0.883,2.12,3.605,0.15,7.434
								c-0.372,0.723-1.935,1.936-2.739,1.818l-5.224-1.688L335.001,311.969z"/>
						</defs>
						<use xlink:href="#XMLID_13_"  style="overflow:visible;fill:#F9F9F9;"/>
						<clipPath id="XMLID_00000024718914840709964370000008013966690887472777_">
							<use xlink:href="#XMLID_13_"  style="overflow:visible;"/>
						</clipPath>
						
							<path style="clip-path:url(#XMLID_00000024718914840709964370000008013966690887472777_);fill:none;stroke:#E2E2E2;stroke-width:0.0982;stroke-linecap:round;stroke-linejoin:round;stroke-miterlimit:10;stroke-dasharray:0.1964,0.1964,0;" d="
							M335.358,312.328c0,0,9.42-1.005,9.513-1.879c0.084-0.789,2.041,3.253,0.279,6.678c-0.333,0.646-2.1,2.475-2.819,2.37
							l-6.101-1.893L335.358,312.328z"/>
						<g style="clip-path:url(#XMLID_00000024718914840709964370000008013966690887472777_);">
							<defs>
								<path id="XMLID_14_" d="M335.671,312.633c0,0,9.767-1.119,9.835-1.968c0.061-0.767,2.164,3.671,0.251,7.011
									c-0.361,0.631-1.92,1.917-2.772,1.821l-6.493-2.038L335.671,312.633z"/>
							</defs>
							<use xlink:href="#XMLID_14_"  style="overflow:visible;fill:#EDEDED;"/>
							<clipPath id="XMLID_00000121274441846188712220000003421535728482121118_">
								<use xlink:href="#XMLID_14_"  style="overflow:visible;"/>
							</clipPath>
						</g>
						
							<path style="opacity:0.3;clip-path:url(#XMLID_00000024718914840709964370000008013966690887472777_);fill:none;stroke:#FFFFFF;stroke-width:1.9636;stroke-miterlimit:10;" d="
							M334.806,314.269c0,0,8.153-0.073,11.896-1.848"/>
						
							<path style="opacity:0.3;clip-path:url(#XMLID_00000024718914840709964370000008013966690887472777_);fill:none;stroke:#FFFFFF;stroke-width:1.9636;stroke-miterlimit:10;" d="
							M335.071,317.357c0,0,8.153-0.073,11.896-1.848"/>
					</g>
					<path style="fill:#F7AE8B;" d="M356.12,339.818c0,0,2.413-0.978,4.4,0.023c0.281,0.141,0.643,0.024,0.697-0.286
						c0.027-0.154-0.024-0.337-0.236-0.539c-0.661-0.628-3.589-1.068-3.589-1.068"/>
					<path style="fill:#F7AE8B;" d="M356.718,338.297c0,0,3.037-0.002,4,0.57c0.271,0.161,0.643,0.024,0.697-0.286
						c0.027-0.154-0.024-0.337-0.236-0.538c-0.661-0.628-3.81-1.025-3.81-1.025"/>
					<path style="fill:#F7AE8B;" d="M357.744,337.665c0,0,2.269-0.148,3.316,0.252c0.294,0.112,0.638-0.086,0.638-0.4
						c0-0.156-0.081-0.328-0.324-0.49c-0.758-0.506-3.718-0.441-3.718-0.441"/>
					<path style="fill:#F7AE8B;" d="M357.768,337.356c0,0,2.183-0.635,3.292-0.471c0.311,0.046,0.604-0.221,0.536-0.529
						c-0.034-0.153-0.15-0.303-0.423-0.409c-0.85-0.33-3.725,0.373-3.725,0.373"/>
					<path style="fill:#F7AE8B;" d="M356.192,336.555c0,0,1.431-0.518,2.015-1.356c0.584-0.838,1.245,0.698,0.246,1.112"/>
					<g>
						<defs>
							<path id="XMLID_10_" d="M330.811,334.839c-0.932,0.276-1.92-0.072-2.304-0.813c-1.479-2.855-4.566-10.374,1.576-12.068
								c6.048-1.668,7.376,6.091,8.25,9.125c0.24,0.832-0.348,1.713-1.326,2.003L330.811,334.839z"/>
						</defs>
						<use xlink:href="#XMLID_10_"  style="overflow:visible;fill:#FDC94F;"/>
						<clipPath id="XMLID_00000038390463544947212880000015669343975147909053_">
							<use xlink:href="#XMLID_10_"  style="overflow:visible;"/>
						</clipPath>
						
							<line style="clip-path:url(#XMLID_00000038390463544947212880000015669343975147909053_);fill:none;stroke:#EDB74C;stroke-miterlimit:10;" x1="324.333" y1="334.5" x2="341.333" y2="329.667"/>
						
							<line style="clip-path:url(#XMLID_00000038390463544947212880000015669343975147909053_);fill:none;stroke:#EDB74C;stroke-miterlimit:10;" x1="324.333" y1="332.5" x2="341.333" y2="327.667"/>
					</g>
					<g>
						<path style="opacity:0.1;fill:#DBDBDB;" d="M112.118,195.595c0.016-0.432,0.043-0.866,0.081-1.302
							c0.952-10.723,8.653-19.218,18.542-21.684c2.423-11.866,13.419-20.279,25.77-19.183c1.252,0.111,2.468,0.327,3.652,0.618
							c-3.468-2.598-7.669-4.305-12.304-4.716c-12.35-1.096-23.347,7.317-25.77,19.183c-9.889,2.466-17.59,10.962-18.542,21.684
							c-0.039,0.436-0.066,0.87-0.081,1.302c-0.393,10.824,7.279,19.949,17.431,22.361
							C115.377,209.648,111.848,203.022,112.118,195.595z"/>
						<g style="opacity:0.5;">
							<path style="fill:#F4F4F4;" d="M181.35,217.219c11.374,0,21.142-8.649,21.908-19.998c0.027-0.4,0.045-0.802,0.053-1.208
								c0.192-9.688-5.459-18.476-13.88-22.575c5.3,4.661,8.562,11.533,8.416,18.932c-0.008,0.406-0.026,0.808-0.053,1.208
								c-0.766,11.348-5.571,21.515-35.928,24.551"/>
						</g>
					</g>
				</g>
				<path style="fill:#F7AE8B;" d="M326.769,313.9c-1.573,0-2.847-1.275-2.847-2.847s1.275-2.847,2.847-2.847"/>
				
					<path style="fill:none;stroke:#FFFFFF;stroke-width:0.3927;stroke-linecap:round;stroke-linejoin:round;stroke-miterlimit:10;" d="
					M324.854,308.696"/>
				
					<path style="fill:none;stroke:#FFFFFF;stroke-width:0.3927;stroke-linecap:round;stroke-linejoin:round;stroke-miterlimit:10;" d="
					M336.038,312.425"/>
				
					<path style="fill:none;stroke:#FFFFFF;stroke-width:0.3927;stroke-linecap:round;stroke-linejoin:round;stroke-miterlimit:10;" d="
					M336.038,312.425"/>
				<g>
					<defs>
						<path id="XMLID_9_" d="M320,299.917c0,0-0.627,7.982,2.667,12.46c0.316,0.429,0.928,0.507,1.325,0.151
							c0.907-0.816,2.403-2.4,2.754-4.218c0.194-1.007,0.62-1.965,1.337-2.697c0.309-0.315,0.65-0.568,0.994-0.647
							c1.188-0.274,3.153,0.081,5.105-0.098c2.016-0.185,7.265-1.375,7.756-4.124C342.429,297.995,320,299.917,320,299.917z"/>
					</defs>
					<use xlink:href="#XMLID_9_"  style="overflow:visible;fill:#F27F46;"/>
					<clipPath id="XMLID_00000016036694324004380990000014478572481952292521_">
						<use xlink:href="#XMLID_9_"  style="overflow:visible;"/>
					</clipPath>
					<g style="opacity:0.4;clip-path:url(#XMLID_00000016036694324004380990000014478572481952292521_);">
						<path style="fill:#E57645;" d="M322.291,300.258c-1.401,0.078-2.286,0.141-2.286,0.141s-0.965,8.333,2.328,12.811
							c0.316,0.429,0.928,0.507,1.325,0.151c0.273-0.245,0.599-0.567,0.931-0.937C321.872,308.592,322.147,302.114,322.291,300.258z
							"/>
					</g>
				</g>
				<g>
					<defs>
						<path id="XMLID_2_" d="M347.384,297.283c-1.096-0.433-2.495-0.749-4.265-0.871c-0.926-2.87-3.479-6.657-10.489-7.297
							c-6.961-0.635-13.225,3.661-13.713,10.634c-0.013,0.183-0.019,1.419-0.019,1.419l5.497-0.32
							c5.37-0.313,10.754,0.255,15.938,1.689c1.776,0.491,3.72,0.88,5.646,0.986C349.677,303.729,350.829,298.645,347.384,297.283z"
							/>
					</defs>
					<use xlink:href="#XMLID_2_"  style="overflow:visible;fill:#FDC94F;"/>
					<clipPath id="XMLID_00000113342134516342262350000010365121219600708503_">
						<use xlink:href="#XMLID_2_"  style="overflow:visible;"/>
					</clipPath>
					<path style="opacity:0.5;clip-path:url(#XMLID_00000113342134516342262350000010365121219600708503_);fill:#F4BD4E;" d="
						M320.5,300.612c0.453-6.479,5.882-11.387,12.232-11.542c-0.247-0.032-0.498-0.061-0.757-0.085
						c-6.961-0.635-13.213,4.523-13.701,11.496c-0.013,0.183-0.023,0.369-0.031,0.557l2.24-0.13
						C320.489,300.809,320.493,300.709,320.5,300.612z"/>
					<g style="opacity:0.3;clip-path:url(#XMLID_00000113342134516342262350000010365121219600708503_);">
						<path style="fill:#FCFCFC;" d="M344.101,296.478c-0.926-2.87-3.479-6.657-10.489-7.297c-1.141-0.104-2.262-0.05-3.343,0.14
							c0.582-0.028,1.173-0.019,1.769,0.035c7.011,0.64,9.563,4.427,10.489,7.297"/>
					</g>
				</g>
				<path style="fill:#EDA588;" d="M326.851,314.064c-1.572,0-3.256-1.307-3.256-2.88c0-1.572,1.275-2.847,2.847-2.847"/>
				<path style="fill:#F7AE8B;" d="M326.9,308.206c-1.572,0-2.847,1.275-2.847,2.847s1.275,2.847,2.847,2.847"/>
				
					<path style="fill:none;stroke:#FFFFFF;stroke-width:0.3927;stroke-linecap:round;stroke-linejoin:round;stroke-miterlimit:10;" d="
					M336.038,312.425l-9.155-3.336c0,0-1.375-0.556-2.324,0"/>
			</g>
			<path style="clip-path:url(#XMLID_00000010302896500879346380000002783820935413056686_);fill:#383838;" d="M314.167,355
				L314.167,355c-3.575,0-6.5-2.925-6.5-6.5v-27c0-3.575,2.925-6.5,6.5-6.5l0,0c3.575,0,6.5,2.925,6.5,6.5v27
				C320.667,352.075,317.742,355,314.167,355z"/>
		</g>
		<path style="fill:#FCBB38;" d="M377.925,346.936c7.862,0,14.295-3.462,14.295-7.694v-8.021c0-4.232-6.433-7.694-14.295-7.694
			V346.936z"/>
		<g>
			<defs>
				<path id="XMLID_40_" d="M374,407l34.803-0.453c5.526,0,10.047-4.521,10.047-10.047l0,0c0-5.526-4.521-10.047-10.047-10.047
					l-32.928,0.297C375.875,386.75,378.5,402.875,374,407z"/>
			</defs>
			<use xlink:href="#XMLID_40_"  style="overflow:visible;fill:#FCBB38;"/>
			<clipPath id="XMLID_00000033362074752545483630000006495531270830798751_">
				<use xlink:href="#XMLID_40_"  style="overflow:visible;"/>
			</clipPath>
			
				<rect x="301" y="402" style="opacity:0.3;clip-path:url(#XMLID_00000033362074752545483630000006495531270830798751_);fill:#E5A535;" width="190" height="8"/>
		</g>
		<g>
			<defs>
				<rect id="XMLID_39_" x="124.597" y="254.09" width="137.993" height="85.496"/>
			</defs>
			<use xlink:href="#XMLID_39_"  style="overflow:visible;opacity:0.3;fill:#FFFFFF;"/>
			<clipPath id="XMLID_00000139281671979714745520000001919783597795032254_">
				<use xlink:href="#XMLID_39_"  style="overflow:visible;opacity:0.3;"/>
			</clipPath>
			<g style="clip-path:url(#XMLID_00000139281671979714745520000001919783597795032254_);">
				<defs>
					<rect id="XMLID_41_" x="144.982" y="287" width="43.535" height="43.535"/>
				</defs>
				<use xlink:href="#XMLID_41_"  style="overflow:visible;fill:#FCBB38;"/>
				<clipPath id="XMLID_00000159430627108537950110000001030740894352425657_">
					<use xlink:href="#XMLID_41_"  style="overflow:visible;"/>
				</clipPath>
				
					<line style="opacity:0.3;clip-path:url(#XMLID_00000159430627108537950110000001030740894352425657_);fill:none;stroke:#E8A736;stroke-miterlimit:10;" x1="166.75" y1="306" x2="166.75" y2="335.75"/>
				
					<rect x="159.417" y="285" style="opacity:0.3;clip-path:url(#XMLID_00000159430627108537950110000001030740894352425657_);fill:#FFFFFF;" width="14.667" height="20.667"/>
			</g>
			<g style="clip-path:url(#XMLID_00000139281671979714745520000001919783597795032254_);">
				<defs>
					<rect id="XMLID_42_" x="198.316" y="287" width="43.535" height="43.535"/>
				</defs>
				<use xlink:href="#XMLID_42_"  style="overflow:visible;fill:#FCBB38;"/>
				<clipPath id="XMLID_00000129918469764155258260000001806412426375077822_">
					<use xlink:href="#XMLID_42_"  style="overflow:visible;"/>
				</clipPath>
				
					<line style="opacity:0.3;clip-path:url(#XMLID_00000129918469764155258260000001806412426375077822_);fill:none;stroke:#E8A736;stroke-miterlimit:10;" x1="220.083" y1="306" x2="220.083" y2="335.75"/>
				
					<rect x="212.75" y="285" style="opacity:0.3;clip-path:url(#XMLID_00000129918469764155258260000001806412426375077822_);fill:#FFFFFF;" width="14.667" height="20.667"/>
			</g>
		</g>
		
			<text transform="matrix(1 0 0 1 139 282)" style="fill:#FFFFFF; font-family:'OpenSans-Extrabold'; font-size:20px; letter-spacing:1;">DELIVERY</text>
		<rect x="121.125" y="254.375" style="fill:#FCBA35;" width="6.5" height="88.5"/>
		<rect x="259.083" y="254" style="fill:#FCBA35;" width="6.5" height="88.5"/>
		<rect x="121.104" y="252" style="fill:#F9B130;" width="144.271" height="7"/>
		<rect x="121.125" y="337.5" style="fill:#F9B130;" width="144.505" height="7"/>
		<g>
			<defs>
				<path id="XMLID_3_" d="M263.533,340.886c0,0.691-0.56,1.252-1.252,1.252c-0.691,0-1.252-0.56-1.252-1.252
					s0.56-1.252,1.252-1.252C262.973,339.635,263.533,340.195,263.533,340.886z"/>
			</defs>
			<use xlink:href="#XMLID_3_"  style="overflow:visible;fill:#FCBA35;"/>
			<clipPath id="XMLID_00000139983150624457938820000007721963909603309199_">
				<use xlink:href="#XMLID_3_"  style="overflow:visible;"/>
			</clipPath>
			<path style="opacity:0.02;clip-path:url(#XMLID_00000139983150624457938820000007721963909603309199_);fill:#010703;" d="
				M262.905,339.807c0.163,0.211,0.264,0.473,0.264,0.761c0,0.691-0.56,1.252-1.251,1.252c-0.228,0-0.439-0.066-0.624-0.172
				c0.229,0.297,0.584,0.491,0.988,0.491c0.691,0,1.252-0.56,1.252-1.252C263.533,340.423,263.279,340.023,262.905,339.807z"/>
		</g>
		<g>
			<defs>
				<circle id="XMLID_4_" cx="262" cy="255.874" r="1.252"/>
			</defs>
			<use xlink:href="#XMLID_4_"  style="overflow:visible;fill:#FCBA35;"/>
			<clipPath id="XMLID_00000097466114081845749770000010114569017152764555_">
				<use xlink:href="#XMLID_4_"  style="overflow:visible;"/>
			</clipPath>
			<path style="opacity:0.02;clip-path:url(#XMLID_00000097466114081845749770000010114569017152764555_);fill:#010703;" d="
				M262.624,254.795c0.163,0.211,0.264,0.473,0.264,0.761c0,0.691-0.56,1.252-1.252,1.252c-0.228,0-0.439-0.066-0.624-0.172
				c0.229,0.297,0.584,0.491,0.988,0.491c0.691,0,1.252-0.56,1.252-1.252C263.252,255.411,262.997,255.012,262.624,254.795z"/>
		</g>
		<g>
			<defs>
				<circle id="XMLID_6_" cx="125.03" cy="340.886" r="1.252"/>
			</defs>
			<use xlink:href="#XMLID_6_"  style="overflow:visible;fill:#FCBA35;"/>
			<clipPath id="XMLID_00000103227817811387866080000015168117690674817161_">
				<use xlink:href="#XMLID_6_"  style="overflow:visible;"/>
			</clipPath>
			<path style="opacity:0.02;clip-path:url(#XMLID_00000103227817811387866080000015168117690674817161_);fill:#010703;" d="
				M125.653,339.807c0.163,0.211,0.264,0.473,0.264,0.761c0,0.691-0.56,1.252-1.252,1.252c-0.228,0-0.439-0.066-0.624-0.172
				c0.229,0.297,0.584,0.491,0.988,0.491c0.691,0,1.252-0.56,1.252-1.252C126.281,340.423,126.027,340.023,125.653,339.807z"/>
		</g>
		<g>
			<defs>
				<circle id="XMLID_5_" cx="124.748" cy="255.874" r="1.252"/>
			</defs>
			<use xlink:href="#XMLID_5_"  style="overflow:visible;fill:#FCBA35;"/>
			<clipPath id="XMLID_00000110464332340812306400000004475027285097787309_">
				<use xlink:href="#XMLID_5_"  style="overflow:visible;"/>
			</clipPath>
			<path style="opacity:0.02;clip-path:url(#XMLID_00000110464332340812306400000004475027285097787309_);fill:#010703;" d="
				M125.372,254.795c0.163,0.211,0.264,0.473,0.264,0.761c0,0.691-0.56,1.252-1.252,1.252c-0.228,0-0.439-0.066-0.624-0.172
				c0.229,0.297,0.584,0.491,0.988,0.491c0.691,0,1.252-0.56,1.252-1.252C126,255.411,125.746,255.012,125.372,254.795z"/>
		</g>
	</g>
	<g id="cloud_1_">
		<defs>
			<path id="XMLID_7_" d="M294.036,178.167h59.975c6.694,0,12.29-5.342,12.322-12.036c0-0.044,0-0.087,0-0.131
				c0-11.38-6.873-21.152-16.694-25.4C349.082,128.577,339.161,119,327,119c-12.329,0-22.352,9.845-22.652,22.102
				c-0.664-0.062-1.334-0.102-2.014-0.102C290.551,141,281,150.551,281,162.333c0,3.19,0.704,6.211,1.963,8.924
				C284.945,175.527,289.329,178.167,294.036,178.167z"/>
		</defs>
		<use xlink:href="#XMLID_7_"  style="overflow:visible;fill:#FCFCFC;"/>
		<clipPath id="XMLID_00000000944483652128369200000016027117074014158014_">
			<use xlink:href="#XMLID_7_"  style="overflow:visible;"/>
		</clipPath>
		<path style="opacity:0.5;clip-path:url(#XMLID_00000000944483652128369200000016027117074014158014_);fill:#F4F4F4;" d="
			M349.64,140.6C349.082,128.577,339.161,119,327,119c-2.434,0-4.776,0.389-6.973,1.099c11.218,0.995,20.087,10.154,20.613,21.5
			c9.82,4.248,16.694,14.02,16.694,25.4c0,0.044,0,0.087,0,0.131c-0.023,4.97-3.117,9.189-7.447,11.036h4.126
			c6.694,0,12.29-5.342,12.322-12.036c0-0.044,0-0.087,0-0.131C366.333,154.62,359.46,144.848,349.64,140.6z"/>
		<path style="opacity:0.4;clip-path:url(#XMLID_00000000944483652128369200000016027117074014158014_);fill:#EDEDED;" d="
			M303.33,190.493c2.504,0,4.923-0.336,7.218-0.95c-13.773-0.847-24.668-11.646-24.668-24.85c0-11.396,8.117-20.998,19.193-23.96
			c-0.577-0.035-1.157-0.06-1.743-0.06c-14.586,0-26.411,11.153-26.411,24.91C276.92,179.34,288.744,190.493,303.33,190.493z"/>
	</g>
	<g id="cloud">
		<defs>
			<path id="XMLID_8_" d="M129.325,193.488c-0.107-0.164-0.221-0.322-0.325-0.488c-0.093,0.166-0.199,0.324-0.295,0.488H89.231
				c-8.109,0-14.875-6.473-14.919-14.582c0-0.054,0-0.107,0-0.161c0-8.878,3.967-16.825,10.219-22.181
				c-0.003-0.167-0.013-0.333-0.013-0.501c0-16.441,13.328-29.77,29.77-29.77c16.441,0,29.77,13.328,29.77,29.77
				c0,0.13-0.008,0.259-0.01,0.389c3.283-0.784,6.816-0.924,10.478-0.197c10.621,2.111,18.684,11.194,19.512,21.991
				c0.008,0.105,0.016,0.211,0.022,0.316c0.519,8.105-6.023,14.926-14.144,14.926H129.325z"/>
		</defs>
		<use xlink:href="#XMLID_8_"  style="overflow:visible;fill:#FFFFFF;"/>
		<clipPath id="XMLID_00000009549935535825116140000018096718395412932742_">
			<use xlink:href="#XMLID_8_"  style="overflow:visible;"/>
		</clipPath>
		<g style="opacity:0.4;clip-path:url(#XMLID_00000009549935535825116140000018096718395412932742_);">
			<path style="fill:#F4F4F4;" d="M80.949,159.77c-0.003-0.174-0.013-0.347-0.013-0.521c0-17.123,13.933-31.004,31.121-31.004
				c2.988,0,5.874,0.428,8.609,1.211c-0.399-0.015-0.797-0.03-1.199-0.03c-17.188,0-31.121,13.881-31.121,31.004
				c0,0.175,0.01,0.347,0.013,0.521c-6.536,5.578-10.683,13.855-10.683,23.101c0,0.056,0,0.112,0,0.168
				c0.035,6.338,4.028,11.716,9.602,14.006h-1.415c-8.477,0-15.55-6.742-15.596-15.187c0-0.056,0-0.112,0-0.168
				C70.266,173.625,74.413,165.348,80.949,159.77z"/>
		</g>
		<path style="opacity:0.5;clip-path:url(#XMLID_00000009549935535825116140000018096718395412932742_);fill:#FCFCFC;" d="
			M170.657,183.74c-0.007-0.109-0.015-0.217-0.023-0.326c-0.855-11.153-9.184-20.536-20.156-22.717
			c-3.783-0.752-7.432-0.607-10.824,0.203c0.002-0.134,0.01-0.267,0.01-0.402c0-16.984-13.768-30.752-30.752-30.752
			c-3.212,0-6.309,0.494-9.219,1.408c4.683-3.07,10.279-4.861,16.296-4.861c16.441,0,29.77,13.328,29.77,29.77
			c0,0.13-0.008,0.259-0.01,0.389c3.283-0.784,6.816-0.924,10.478-0.197c10.621,2.111,18.684,11.194,19.511,21.991
			c0.008,0.105,0.016,0.211,0.022,0.316c0.347,5.415-2.467,10.245-6.789,12.862C170.195,189.146,170.835,186.52,170.657,183.74z"/>
	</g>
</g>
</svg>
